<svg xmlns="http://www.w3.org/2000/svg" xmlns:xlink="http://www.w3.org/1999/xlink" width="250" zoomAndPan="magnify" viewBox="0 0 187.5 30.000001" height="40" preserveAspectRatio="xMidYMid meet" version="1.0"><defs><g/><clipPath id="19e768a96a"><path d="M 2.78125 0 L 129 0 L 129 29.03125 L 2.78125 29.03125 Z M 2.78125 0 " clipRule="nonzero"/></clipPath><clipPath id="3573c6c32b"><path d="M 6.421875 0 L 125.242188 0 C 127.253906 0 128.882812 1.628906 128.882812 3.640625 L 128.882812 26.34375 C 128.882812 28.355469 127.253906 29.984375 125.242188 29.984375 L 6.421875 29.984375 C 4.410156 29.984375 2.78125 28.355469 2.78125 26.34375 L 2.78125 3.640625 C 2.78125 1.628906 4.410156 0 6.421875 0 " clipRule="nonzero"/></clipPath><clipPath id="6e2c1531a8"><path d="M 6.5 4.492188 L 27 4.492188 L 27 24.871094 L 6.5 24.871094 Z M 6.5 4.492188 " clipRule="nonzero"/></clipPath><clipPath id="da8acf9c84"><path d="M 22 14 L 32.699219 14 L 32.699219 24.871094 L 22 24.871094 Z M 22 14 " clipRule="nonzero"/></clipPath></defs><g clip-path="url(#19e768a96a)"><g clip-path="url(#3573c6c32b)"><path fill="#aafe2c" d="M 2.78125 0 L 128.863281 0 L 128.863281 30.019531 L 2.78125 30.019531 Z M 2.78125 0 " fill-opacity="1" fillRule="nonzero"/></g></g><g fill="#122620" fill-opacity="1"><g transform="translate(36.116626, 19.863165)"><g><path d="M 1.902344 0 C 2.148438 0 2.214844 -0.0820312 2.359375 -0.34375 L 6 -8.363281 L 6.035156 -8.363281 L 7.804688 -4.574219 L 9.722656 -4.574219 L 6.328125 -11.394531 C 6.199219 -11.59375 6.164062 -11.722656 6.035156 -11.722656 L 5.984375 -11.722656 C 5.871094 -11.722656 5.820312 -11.59375 5.707031 -11.394531 L 0.164062 -0.34375 C 0.0820312 -0.179688 0.179688 0 0.378906 0 Z M 11.640625 0 C 11.855469 0 11.953125 -0.179688 11.871094 -0.34375 L 9.871094 -4.28125 L 4.476562 -4.28125 L 3.707031 -2.589844 L 8.589844 -2.589844 L 9.671875 -0.34375 C 9.804688 -0.0820312 9.886719 0 10.132812 0 Z M 11.640625 0 "/></g></g></g><g fill="#122620" fill-opacity="1"><g transform="translate(48.110809, 19.863165)"><g><path d="M 11.050781 0.246094 C 11.148438 0.246094 11.214844 0.132812 11.3125 -0.0820312 L 11.871094 -1.476562 L 8.296875 -11.347656 C 8.199219 -11.574219 8.148438 -11.691406 8.019531 -11.691406 L 7.789062 -11.691406 C 7.65625 -11.691406 7.609375 -11.574219 7.507812 -11.347656 L 5.082031 -4.34375 L 5.917969 -1.984375 L 7.902344 -7.902344 L 10.65625 -0.0820312 C 10.753906 0.132812 10.820312 0.246094 10.902344 0.246094 Z M 4.492188 -0.0820312 C 4.605469 0.148438 4.65625 0.246094 4.738281 0.246094 L 5.015625 0.246094 C 5.117188 0.246094 5.164062 0.132812 5.261719 -0.0820312 L 5.769531 -1.558594 L 2.394531 -11.132812 C 2.3125 -11.394531 2.195312 -11.476562 1.933594 -11.476562 L 0.359375 -11.476562 C 0.113281 -11.476562 0.0664062 -11.394531 0.179688 -11.132812 Z M 13.871094 -11.476562 C 13.609375 -11.476562 13.492188 -11.394531 13.410156 -11.132812 L 11.066406 -4.523438 L 12.019531 -1.871094 L 15.625 -11.132812 C 15.738281 -11.394531 15.691406 -11.476562 15.445312 -11.476562 Z M 13.871094 -11.476562 "/></g></g></g><g fill="#122620" fill-opacity="1"><g transform="translate(63.873657, 19.863165)"><g><path d="M 1.394531 -0.34375 C 1.394531 -0.0820312 1.476562 0 1.753906 0 L 3.378906 0 L 3.378906 -11.476562 L 1.753906 -11.476562 C 1.492188 -11.476562 1.394531 -11.394531 1.394531 -11.132812 Z M 3.671875 -11.476562 L 3.671875 -9.773438 L 9.117188 -9.773438 C 9.378906 -9.773438 9.476562 -9.871094 9.476562 -10.132812 L 9.476562 -11.132812 C 9.476562 -11.394531 9.378906 -11.476562 9.117188 -11.476562 Z M 9.476562 -1.34375 C 9.476562 -1.625 9.394531 -1.6875 9.117188 -1.6875 L 3.671875 -1.6875 L 3.671875 0 L 9.117188 0 C 9.394531 0 9.476562 -0.0820312 9.476562 -0.34375 Z M 3.671875 -6.625 L 3.671875 -4.933594 L 8.871094 -4.933594 C 9.148438 -4.933594 9.214844 -5.015625 9.214844 -5.28125 L 9.214844 -6.28125 C 9.214844 -6.558594 9.148438 -6.625 8.871094 -6.625 Z M 3.671875 -6.625 "/></g></g></g><g fill="#122620" fill-opacity="1"><g transform="translate(74.311217, 19.863165)"><g><path d="M 5.753906 -6.574219 C 4.082031 -6.789062 2.917969 -7.035156 2.917969 -8.132812 C 2.917969 -8.902344 3.328125 -9.835938 5.082031 -9.917969 L 5.082031 -11.65625 C 2.03125 -11.609375 1 -9.460938 1 -8.066406 C 1 -5.789062 3.035156 -5.164062 4.820312 -4.933594 C 6.65625 -4.6875 7.753906 -4.378906 7.753906 -3.195312 C 7.753906 -2.066406 6.804688 -1.558594 5.296875 -1.558594 L 5.296875 0.179688 L 5.460938 0.179688 C 8.28125 0.179688 9.671875 -1.542969 9.671875 -3.277344 C 9.671875 -5.707031 7.753906 -6.328125 5.753906 -6.574219 Z M 0.984375 -1.066406 C 2.097656 -0.296875 3.492188 0.132812 5 0.179688 L 5 -1.558594 C 4.050781 -1.589844 2.851562 -1.886719 1.871094 -2.523438 C 1.789062 -2.589844 1.707031 -2.605469 1.65625 -2.605469 C 1.542969 -2.605469 1.476562 -2.523438 1.394531 -2.378906 L 0.886719 -1.558594 C 0.769531 -1.328125 0.738281 -1.214844 0.984375 -1.066406 Z M 5.378906 -9.917969 C 6.574219 -9.917969 7.394531 -9.609375 8.378906 -8.953125 C 8.460938 -8.902344 8.527344 -8.871094 8.574219 -8.871094 C 8.691406 -8.871094 8.773438 -8.96875 8.855469 -9.117188 L 9.347656 -9.917969 C 9.460938 -10.148438 9.492188 -10.28125 9.265625 -10.410156 C 8.101562 -11.132812 7.035156 -11.625 5.378906 -11.65625 Z M 5.378906 -9.917969 "/></g></g></g><g fill="#122620" fill-opacity="1"><g transform="translate(84.797936, 19.863165)"><g><path d="M 6.492188 -1.523438 C 4.261719 -1.625 2.753906 -3.671875 2.753906 -5.738281 C 2.753906 -7.804688 4.246094 -9.855469 6.492188 -9.953125 L 6.492188 -11.691406 C 3.296875 -11.609375 0.753906 -8.902344 0.753906 -5.738281 C 0.753906 -2.574219 3.261719 0.113281 6.492188 0.214844 Z M 6.789062 -9.953125 C 9.066406 -9.855469 10.527344 -7.804688 10.527344 -5.738281 C 10.527344 -3.671875 9.066406 -1.625 6.789062 -1.523438 L 6.789062 0.214844 C 10 0.113281 12.527344 -2.574219 12.527344 -5.738281 C 12.527344 -8.902344 9.984375 -11.609375 6.789062 -11.691406 Z M 6.789062 -9.953125 "/></g></g></g><g fill="#122620" fill-opacity="1"><g transform="translate(98.070186, 19.863165)"><g><path d="M 8.066406 -2.6875 L 2.769531 -11.542969 C 2.707031 -11.65625 2.640625 -11.691406 2.574219 -11.691406 L 2.3125 -11.691406 L 2.050781 -9.394531 L 7.609375 -0.132812 C 7.738281 0.0820312 7.835938 0.214844 7.96875 0.214844 L 8.148438 0.214844 C 8.28125 0.214844 8.378906 0.0820312 8.527344 -0.132812 L 14.085938 -9.394531 L 13.773438 -11.691406 L 13.558594 -11.691406 C 13.492188 -11.691406 13.429688 -11.65625 13.363281 -11.542969 Z M 2.574219 0 C 2.835938 0 2.886719 -0.0664062 2.917969 -0.34375 L 3.589844 -6.28125 L 1.984375 -8.953125 L 0.933594 -0.34375 C 0.902344 -0.0976562 1.015625 0 1.277344 0 Z M 13.214844 -0.34375 C 13.230469 -0.0664062 13.296875 0 13.558594 0 L 14.855469 0 C 15.117188 0 15.230469 -0.0976562 15.199219 -0.34375 L 14.132812 -8.9375 L 12.527344 -6.261719 Z M 13.214844 -0.34375 "/></g></g></g><g fill="#122620" fill-opacity="1"><g transform="translate(114.177128, 19.863165)"><g><path d="M 1.394531 -0.34375 C 1.394531 -0.0820312 1.476562 0 1.753906 0 L 3.378906 0 L 3.378906 -11.476562 L 1.753906 -11.476562 C 1.492188 -11.476562 1.394531 -11.394531 1.394531 -11.132812 Z M 3.671875 -11.476562 L 3.671875 -9.773438 L 9.117188 -9.773438 C 9.378906 -9.773438 9.476562 -9.871094 9.476562 -10.132812 L 9.476562 -11.132812 C 9.476562 -11.394531 9.378906 -11.476562 9.117188 -11.476562 Z M 9.476562 -1.34375 C 9.476562 -1.625 9.394531 -1.6875 9.117188 -1.6875 L 3.671875 -1.6875 L 3.671875 0 L 9.117188 0 C 9.394531 0 9.476562 -0.0820312 9.476562 -0.34375 Z M 3.671875 -6.625 L 3.671875 -4.933594 L 8.871094 -4.933594 C 9.148438 -4.933594 9.214844 -5.015625 9.214844 -5.28125 L 9.214844 -6.28125 C 9.214844 -6.558594 9.148438 -6.625 8.871094 -6.625 Z M 3.671875 -6.625 "/></g></g></g><g clip-path="url(#6e2c1531a8)"><path fill="#211f60" d="M 16.6875 9.921875 C 16.75 10.492188 16.902344 11.03125 17.144531 11.550781 C 17.390625 12.066406 17.710938 12.527344 18.109375 12.929688 C 18.507812 13.335938 18.960938 13.660156 19.46875 13.910156 C 19.976562 14.15625 20.511719 14.3125 21.070312 14.375 C 22.839844 14.550781 24.613281 14.636719 26.390625 14.621094 C 24.613281 14.605469 22.839844 14.6875 21.070312 14.867188 C 20.511719 14.929688 19.976562 15.082031 19.46875 15.332031 C 18.960938 15.578125 18.507812 15.90625 18.109375 16.308594 C 17.710938 16.714844 17.390625 17.175781 17.144531 17.691406 C 16.902344 18.207031 16.75 18.75 16.6875 19.320312 C 16.511719 21.117188 16.429688 22.917969 16.445312 24.726562 C 16.460938 22.917969 16.378906 21.117188 16.203125 19.320312 C 16.140625 18.75 15.988281 18.207031 15.746094 17.691406 C 15.503906 17.175781 15.183594 16.714844 14.785156 16.308594 C 14.386719 15.90625 13.933594 15.578125 13.425781 15.332031 C 12.917969 15.082031 12.382812 14.929688 11.820312 14.867188 C 10.050781 14.6875 8.277344 14.605469 6.5 14.621094 C 8.277344 14.632812 10.050781 14.550781 11.820312 14.375 C 12.382812 14.3125 12.917969 14.15625 13.425781 13.910156 C 13.933594 13.660156 14.386719 13.335938 14.785156 12.929688 C 15.183594 12.527344 15.503906 12.066406 15.746094 11.550781 C 15.988281 11.03125 16.140625 10.492188 16.203125 9.921875 C 16.378906 8.125 16.460938 6.320312 16.445312 4.511719 C 16.429688 6.320312 16.511719 8.125 16.6875 9.921875 Z M 16.6875 9.921875 " fill-opacity="1" fillRule="nonzero"/></g><g clip-path="url(#da8acf9c84)"><path fill="#211f60" d="M 27.792969 17.355469 C 27.824219 17.644531 27.902344 17.917969 28.023438 18.179688 C 28.148438 18.441406 28.308594 18.675781 28.511719 18.878906 C 28.714844 19.085938 28.941406 19.25 29.199219 19.375 C 29.457031 19.5 29.726562 19.578125 30.011719 19.609375 C 30.90625 19.699219 31.804688 19.742188 32.703125 19.734375 C 31.804688 19.726562 30.90625 19.769531 30.011719 19.859375 C 29.726562 19.890625 29.457031 19.96875 29.199219 20.09375 C 28.941406 20.21875 28.714844 20.382812 28.511719 20.589844 C 28.308594 20.792969 28.148438 21.027344 28.023438 21.289062 C 27.902344 21.550781 27.824219 21.824219 27.792969 22.113281 C 27.703125 23.023438 27.664062 23.933594 27.671875 24.847656 C 27.679688 23.933594 27.636719 23.023438 27.546875 22.113281 C 27.515625 21.824219 27.441406 21.550781 27.316406 21.289062 C 27.191406 21.027344 27.03125 20.792969 26.828125 20.589844 C 26.628906 20.382812 26.398438 20.21875 26.140625 20.09375 C 25.882812 19.96875 25.613281 19.890625 25.332031 19.859375 C 24.433594 19.769531 23.539062 19.726562 22.636719 19.734375 C 23.539062 19.742188 24.433594 19.699219 25.332031 19.609375 C 25.613281 19.578125 25.882812 19.5 26.140625 19.375 C 26.398438 19.25 26.628906 19.085938 26.828125 18.878906 C 27.03125 18.675781 27.191406 18.441406 27.316406 18.179688 C 27.441406 17.917969 27.515625 17.644531 27.546875 17.355469 C 27.636719 16.445312 27.679688 15.535156 27.671875 14.621094 C 27.664062 15.535156 27.703125 16.445312 27.792969 17.355469 Z M 27.792969 17.355469 " fill-opacity="1" fillRule="nonzero"/></g><path fill="#211f60" d="M 24.011719 7.265625 C 24.046875 7.625 24.195312 7.9375 24.449219 8.195312 C 24.703125 8.453125 25.007812 8.601562 25.363281 8.640625 C 25.910156 8.695312 26.457031 8.71875 27.007812 8.714844 C 26.457031 8.710938 25.910156 8.738281 25.363281 8.792969 C 25.007812 8.832031 24.703125 8.980469 24.449219 9.238281 C 24.195312 9.496094 24.046875 9.804688 24.011719 10.167969 C 23.957031 10.722656 23.929688 11.28125 23.933594 11.839844 C 23.9375 11.28125 23.914062 10.722656 23.859375 10.167969 C 23.820312 9.804688 23.675781 9.496094 23.421875 9.238281 C 23.167969 8.980469 22.863281 8.832031 22.507812 8.792969 C 21.960938 8.738281 21.410156 8.710938 20.863281 8.714844 C 21.410156 8.71875 21.960938 8.695312 22.507812 8.640625 C 22.863281 8.601562 23.167969 8.453125 23.421875 8.195312 C 23.675781 7.9375 23.820312 7.625 23.859375 7.265625 C 23.914062 6.707031 23.9375 6.152344 23.933594 5.59375 C 23.929688 6.152344 23.957031 6.707031 24.011719 7.265625 Z M 24.011719 7.265625 " fill-opacity="1" fillRule="nonzero"/><g fill="#211f60" fill-opacity="1"><g transform="translate(135.630794, 19.863165)"><g><path d="M 3.410156 -11.132812 C 3.410156 -11.394531 3.328125 -11.476562 3.066406 -11.476562 L 1.769531 -11.476562 C 1.507812 -11.476562 1.425781 -11.394531 1.425781 -11.132812 L 1.425781 -0.34375 C 1.425781 -0.0820312 1.507812 0 1.769531 0 L 3.410156 0 Z M 8.492188 0 C 8.753906 0 8.835938 -0.0820312 8.835938 -0.34375 L 8.835938 -1.34375 C 8.835938 -1.625 8.753906 -1.6875 8.492188 -1.6875 L 3.6875 -1.6875 L 3.6875 0 Z M 8.492188 0 "/></g></g></g><g fill="#211f60" fill-opacity="1"><g transform="translate(144.986912, 19.863165)"><g><path d="M 1.394531 -0.34375 C 1.394531 -0.0820312 1.476562 0 1.753906 0 L 3.378906 0 L 3.378906 -11.476562 L 1.753906 -11.476562 C 1.492188 -11.476562 1.394531 -11.394531 1.394531 -11.132812 Z M 3.671875 -11.476562 L 3.671875 -9.773438 L 9.117188 -9.773438 C 9.378906 -9.773438 9.476562 -9.871094 9.476562 -10.132812 L 9.476562 -11.132812 C 9.476562 -11.394531 9.378906 -11.476562 9.117188 -11.476562 Z M 9.476562 -1.34375 C 9.476562 -1.625 9.394531 -1.6875 9.117188 -1.6875 L 3.671875 -1.6875 L 3.671875 0 L 9.117188 0 C 9.394531 0 9.476562 -0.0820312 9.476562 -0.34375 Z M 3.671875 -6.625 L 3.671875 -4.933594 L 8.871094 -4.933594 C 9.148438 -4.933594 9.214844 -5.015625 9.214844 -5.28125 L 9.214844 -6.28125 C 9.214844 -6.558594 9.148438 -6.625 8.871094 -6.625 Z M 3.671875 -6.625 "/></g></g></g><g fill="#211f60" fill-opacity="1"><g transform="translate(155.424472, 19.863165)"><g><path d="M 11.117188 0.214844 C 11.230469 0.214844 11.265625 0.179688 11.265625 0.0664062 L 11.265625 -2.015625 L 1.984375 -11.558594 C 1.902344 -11.640625 1.820312 -11.691406 1.722656 -11.691406 L 1.589844 -11.691406 C 1.476562 -11.691406 1.441406 -11.65625 1.441406 -11.542969 L 1.441406 -9.558594 L 10.722656 0.0820312 C 10.820312 0.164062 10.902344 0.214844 11 0.214844 Z M 3.082031 0 C 3.34375 0 3.425781 -0.0820312 3.425781 -0.34375 L 3.425781 -7.082031 L 1.441406 -9.148438 L 1.441406 -0.34375 C 1.441406 -0.0820312 1.542969 0 1.804688 0 Z M 9.625 -11.476562 C 9.363281 -11.476562 9.28125 -11.394531 9.28125 -11.132812 L 9.28125 -4.460938 L 11.265625 -2.425781 L 11.265625 -11.132812 C 11.265625 -11.394531 11.183594 -11.476562 10.917969 -11.476562 Z M 9.625 -11.476562 "/></g></g></g><g fill="#211f60" fill-opacity="1"><g transform="translate(168.139622, 19.863165)"><g><path d="M 5.753906 -6.574219 C 4.082031 -6.789062 2.917969 -7.035156 2.917969 -8.132812 C 2.917969 -8.902344 3.328125 -9.835938 5.082031 -9.917969 L 5.082031 -11.65625 C 2.03125 -11.609375 1 -9.460938 1 -8.066406 C 1 -5.789062 3.035156 -5.164062 4.820312 -4.933594 C 6.65625 -4.6875 7.753906 -4.378906 7.753906 -3.195312 C 7.753906 -2.066406 6.804688 -1.558594 5.296875 -1.558594 L 5.296875 0.179688 L 5.460938 0.179688 C 8.28125 0.179688 9.671875 -1.542969 9.671875 -3.277344 C 9.671875 -5.707031 7.753906 -6.328125 5.753906 -6.574219 Z M 0.984375 -1.066406 C 2.097656 -0.296875 3.492188 0.132812 5 0.179688 L 5 -1.558594 C 4.050781 -1.589844 2.851562 -1.886719 1.871094 -2.523438 C 1.789062 -2.589844 1.707031 -2.605469 1.65625 -2.605469 C 1.542969 -2.605469 1.476562 -2.523438 1.394531 -2.378906 L 0.886719 -1.558594 C 0.769531 -1.328125 0.738281 -1.214844 0.984375 -1.066406 Z M 5.378906 -9.917969 C 6.574219 -9.917969 7.394531 -9.609375 8.378906 -8.953125 C 8.460938 -8.902344 8.527344 -8.871094 8.574219 -8.871094 C 8.691406 -8.871094 8.773438 -8.96875 8.855469 -9.117188 L 9.347656 -9.917969 C 9.460938 -10.148438 9.492188 -10.28125 9.265625 -10.410156 C 8.101562 -11.132812 7.035156 -11.625 5.378906 -11.65625 Z M 5.378906 -9.917969 "/></g></g></g></svg>