<svg width="137" height="57" viewBox="0 0 137 57" fill="none" xmlns="http://www.w3.org/2000/svg">
<path fillRule="evenodd" clipRule="evenodd" d="M80.9221 42.1425H86.1044V16.0114H80.9221V42.1425ZM78.388 28.4328H74.7179V42.1425H69.5738V28.4328H66.9258V24.0398H69.5738V22.3355C69.5738 17.9043 72.3352 15.6323 76.5341 15.6323C77.1394 15.6323 78.0851 15.7458 78.4631 15.8592V21.0097C78.0851 20.8205 77.2908 20.6688 76.7237 20.6688C75.437 20.6688 74.7179 21.5022 74.7179 22.6764V24.0398H78.388V28.4328Z" fill="white"/>
<path fillRule="evenodd" clipRule="evenodd" d="M97.606 37.522C100.253 37.522 102.145 35.3252 102.145 32.7124C102.145 30.0989 100.253 27.9403 97.606 27.9403C94.9961 27.9403 93.029 30.0989 93.029 32.7124C93.029 35.3252 94.9961 37.522 97.606 37.522ZM97.606 22.9038C103.129 22.9038 107.403 27.1828 107.403 32.7124C107.403 38.2414 103.129 42.5585 97.606 42.5585C92.0833 42.5585 87.8086 38.2414 87.8086 32.7124C87.8086 27.1828 92.0833 22.9038 97.606 22.9038Z" fill="white"/>
<path fillRule="evenodd" clipRule="evenodd" d="M112.814 23.2822L116.143 35.8177L119.472 25.8575L118.565 23.2822H123.671L128.059 35.8177L131.312 23.2822H136.646L131.047 42.1418H125.676L121.931 31.8032L118.451 42.1418H113.041L107.48 23.2822H112.814Z" fill="white"/>
<path fillRule="evenodd" clipRule="evenodd" d="M56.9351 28.5C56.9351 44.24 44.1896 57 28.4675 57C12.7455 57 0 44.24 0 28.5C0 12.76 12.7455 0 28.4675 0C44.1896 0 56.9351 12.76 56.9351 28.5Z" fill="#00EF8B"/>
<path fillRule="evenodd" clipRule="evenodd" d="M32.9219 32.0878H40.9594V24.0405H32.9219V32.0878Z" fill="white"/>
<path fillRule="evenodd" clipRule="evenodd" d="M24.8828 35.1049C24.8828 36.7716 23.5334 38.1225 21.8692 38.1225C20.2044 38.1225 18.8545 36.7716 18.8545 35.1049C18.8545 33.4382 20.2044 32.0873 21.8692 32.0873H24.8828V24.04H21.8692C15.7743 24.04 10.8164 29.0036 10.8164 35.1049C10.8164 41.2062 15.7743 46.1697 21.8692 46.1697C27.9624 46.1697 32.9203 41.2062 32.9203 35.1049V32.0873H24.8828V35.1049Z" fill="white"/>
<path fillRule="evenodd" clipRule="evenodd" d="M35.935 20.0175H44.978V11.9702H35.935C29.8407 11.9702 24.8828 16.9338 24.8828 23.0351V24.0405H32.9209V23.0351C32.9226 21.3695 34.2708 20.0192 35.935 20.0175Z" fill="white"/>
<path fillRule="evenodd" clipRule="evenodd" d="M24.8828 32.0873H32.9203H32.9209V24.04H32.9203H24.8828V32.0873Z" fill="#16FF99"/>
</svg>
