<svg xmlns="http://www.w3.org/2000/svg" xmlns:xlink="http://www.w3.org/1999/xlink" width="500" zoomAndPan="magnify" viewBox="0 0 375 374.999991" height="500" preserveAspectRatio="xMidYMid meet" version="1.0"><defs><clipPath id="3034b2d1b0"><path d="M 65 241 L 181 241 L 181 310.183594 L 65 310.183594 Z M 65 241 " clipRule="nonzero"/></clipPath><clipPath id="3b312a4350"><path d="M 164 210 L 263 210 L 263 310.183594 L 164 310.183594 Z M 164 210 " clipRule="nonzero"/></clipPath></defs><rect x="-37.5" width="450" fill="#ffffff" y="-37.499999" height="449.999989" fill-opacity="1"/><rect x="-37.5" width="450" fill="#ffffff" y="-37.499999" height="449.999989" fill-opacity="1"/><rect x="-37.5" width="450" fill="#00bf63" y="-37.499999" height="449.999989" fill-opacity="1"/><path fill="#ffffff" d="M 113.582031 177.710938 C 106.121094 175.992188 99.425781 171.402344 94.835938 165.09375 C 89.863281 158.210938 87.566406 149.605469 88.90625 141.574219 C 89.289062 139.472656 87.757812 137.558594 85.65625 137.179688 C 83.550781 136.796875 81.640625 138.324219 81.257812 140.429688 C 79.726562 150.371094 82.210938 161.078125 88.523438 169.679688 C 94.261719 177.519531 102.488281 183.066406 111.667969 185.359375 C 112.050781 185.359375 112.242188 185.550781 112.625 185.550781 C 114.347656 185.550781 115.875 184.402344 116.257812 182.683594 C 117.023438 180.386719 115.683594 178.285156 113.582031 177.710938 Z M 113.582031 177.710938 " fill-opacity="1" fillRule="nonzero"/><path fill="#ffffff" d="M 149.15625 215.566406 L 162.164062 233.539062 C 163.5 231.054688 164.839844 228.761719 166.5625 226.464844 L 155.46875 211.171875 L 164.074219 204.859375 L 173.636719 218.246094 C 175.550781 216.523438 177.464844 214.804688 179.566406 213.464844 L 170.195312 200.273438 C 169.046875 198.550781 167.328125 197.597656 165.222656 197.214844 C 164.648438 197.023438 164.074219 197.023438 163.308594 197.214844 L 162.925781 196.832031 C 161.589844 194.917969 161.015625 192.625 161.589844 190.332031 C 163.691406 181.152344 167.519531 160.503906 167.710938 157.828125 C 168.855469 144.824219 165.222656 131.632812 157.191406 120.734375 C 140.167969 97.027344 107.84375 90.71875 85.464844 106.585938 C 75.136719 113.851562 68.25 125.132812 66.144531 137.941406 C 63.851562 151.898438 67.484375 166.8125 76.285156 178.667969 C 84.316406 189.566406 95.601562 197.214844 108.417969 200.082031 C 111.09375 200.65625 132.132812 203.714844 141.503906 204.671875 C 143.800781 204.859375 146.097656 206.199219 147.433594 208.113281 L 148.007812 208.875 C 147.433594 211.171875 147.816406 213.464844 149.15625 215.566406 Z M 142.460938 197.023438 C 132.515625 196.066406 112.242188 193.007812 110.328125 192.625 C 99.234375 189.949219 89.480469 183.449219 82.59375 174.078125 C 75.136719 163.945312 71.882812 151.136719 73.988281 139.089844 C 75.710938 128.191406 81.449219 118.824219 90.054688 112.703125 C 96.941406 107.734375 105.164062 105.441406 113.390625 105.441406 C 127.542969 105.441406 141.886719 112.324219 151.261719 125.324219 C 158.144531 134.691406 161.398438 145.972656 160.25 157.253906 C 160.058594 159.164062 156.425781 179.050781 154.320312 188.800781 C 153.363281 193.007812 154.128906 197.40625 156.617188 201.039062 L 153.554688 203.140625 C 150.878906 199.699219 146.859375 197.597656 142.460938 197.023438 Z M 142.460938 197.023438 " fill-opacity="1" fillRule="nonzero"/><g clip-path="url(#3034b2d1b0)"><path fill="#ffffff" d="M 166.753906 293.003906 C 171.152344 289.5625 174.59375 286.3125 176.699219 284.207031 C 178.996094 281.914062 180.332031 278.855469 180.332031 275.605469 C 180.332031 272.351562 178.996094 269.292969 176.699219 267 C 174.59375 264.898438 171.152344 261.644531 166.753906 258.203125 C 156.808594 250.558594 140.933594 241.1875 122.953125 241.1875 C 104.972656 241.1875 89.097656 250.558594 79.152344 258.203125 C 74.753906 261.644531 71.3125 264.898438 69.207031 267 C 66.910156 269.292969 65.574219 272.351562 65.574219 275.605469 C 65.574219 278.855469 66.910156 281.914062 69.207031 284.207031 C 71.3125 286.3125 74.753906 289.5625 79.152344 293.003906 C 89.289062 300.839844 104.972656 310.019531 122.953125 310.019531 C 140.933594 310.019531 156.808594 300.648438 166.753906 293.003906 Z M 162.355469 265.089844 C 162.355469 264.898438 162.546875 264.707031 162.546875 264.707031 C 166.371094 267.765625 169.429688 270.441406 171.34375 272.542969 C 173.066406 274.265625 173.066406 277.132812 171.34375 278.855469 C 169.238281 280.957031 166.371094 283.632812 162.546875 286.691406 C 162.546875 286.5 162.355469 286.5 162.355469 286.3125 C 161.589844 283.058594 161.207031 279.425781 161.207031 275.796875 C 161.207031 272.164062 161.589844 268.339844 162.355469 265.089844 Z M 83.550781 286.121094 C 83.359375 286.121094 83.167969 286.121094 82.976562 286.121094 C 79.34375 283.25 76.476562 280.574219 74.5625 278.664062 C 72.839844 276.941406 72.839844 274.074219 74.5625 272.351562 C 76.667969 270.25 79.726562 267.574219 83.359375 264.515625 C 83.359375 264.707031 83.550781 264.707031 83.550781 264.898438 C 84.316406 268.148438 84.699219 271.78125 84.699219 275.414062 C 84.699219 279.046875 84.316406 282.871094 83.550781 286.121094 Z M 91.011719 263.367188 C 90.820312 262.21875 90.246094 261.074219 89.480469 260.308594 C 98.46875 254.382812 110.136719 248.835938 122.953125 248.835938 C 135.769531 248.835938 147.433594 254.191406 156.425781 260.308594 C 155.660156 261.265625 155.085938 262.21875 154.894531 263.367188 C 153.9375 267.191406 153.554688 271.398438 153.554688 275.605469 C 153.554688 279.808594 153.9375 284.015625 154.894531 287.839844 C 155.085938 288.988281 155.660156 290.132812 156.425781 290.898438 C 147.433594 296.828125 135.769531 302.371094 122.953125 302.371094 C 110.136719 302.371094 98.46875 297.019531 89.480469 290.898438 C 90.246094 289.945312 90.820312 288.988281 91.011719 287.839844 C 91.96875 284.015625 92.351562 279.808594 92.351562 275.605469 C 92.351562 271.398438 91.96875 267.191406 91.011719 263.367188 Z M 91.011719 263.367188 " fill-opacity="1" fillRule="nonzero"/></g><path fill="#ffffff" d="M 106.3125 280 L 106.886719 280 L 106.886719 280.574219 C 106.886719 282.679688 108.609375 284.398438 110.710938 284.398438 C 112.816406 284.398438 114.535156 282.679688 114.535156 280.574219 L 114.535156 280 L 120.082031 280 L 120.082031 280.574219 C 120.082031 282.679688 121.804688 284.398438 123.910156 284.398438 C 126.011719 284.398438 127.734375 282.679688 127.734375 280.574219 L 127.734375 280 L 133.28125 280 L 133.28125 280.574219 C 133.28125 282.679688 135.003906 284.398438 137.105469 284.398438 C 139.210938 284.398438 140.933594 282.679688 140.933594 280.574219 L 140.933594 280 L 141.503906 280 C 143.609375 280 145.332031 278.28125 145.332031 276.175781 C 145.332031 274.074219 143.609375 272.351562 141.503906 272.351562 L 140.933594 272.351562 L 140.933594 271.78125 C 140.933594 269.675781 139.210938 267.957031 137.105469 267.957031 C 135.003906 267.957031 133.28125 269.675781 133.28125 271.78125 L 133.28125 272.351562 L 127.734375 272.351562 L 127.734375 271.78125 C 127.734375 269.675781 126.011719 267.957031 123.910156 267.957031 C 121.804688 267.957031 120.082031 269.675781 120.082031 271.78125 L 120.082031 272.351562 L 114.535156 272.351562 L 114.535156 271.78125 C 114.535156 269.675781 112.816406 267.957031 110.710938 267.957031 C 108.609375 267.957031 106.886719 269.675781 106.886719 271.78125 L 106.886719 272.351562 L 106.3125 272.351562 C 104.207031 272.351562 102.488281 274.074219 102.488281 276.175781 C 102.488281 278.28125 104.207031 280 106.3125 280 Z M 106.3125 280 " fill-opacity="1" fillRule="nonzero"/><path fill="#ffffff" d="M 206.726562 175.417969 L 204.242188 189.949219 C 203.476562 193.773438 203.285156 197.785156 203.285156 201.800781 L 203.285156 203.714844 C 205.773438 203.332031 208.257812 202.949219 210.9375 202.949219 L 210.9375 201.800781 C 210.9375 198.359375 211.316406 194.726562 211.890625 191.285156 L 214.378906 176.753906 C 215.910156 167.960938 216.671875 158.78125 216.671875 149.796875 L 216.671875 80.585938 C 216.671875 72.171875 209.980469 65.289062 201.5625 65.289062 L 197.164062 65.289062 C 188.941406 65.289062 182.246094 72.171875 182.246094 80.585938 L 182.246094 149.605469 C 182.246094 158.59375 183.011719 167.769531 184.539062 176.5625 L 187.027344 191.09375 C 187.601562 194.535156 187.984375 198.167969 187.984375 201.609375 L 187.984375 208.683594 C 190.46875 207.539062 192.957031 206.390625 195.632812 205.625 L 195.632812 201.800781 C 195.632812 197.785156 195.25 193.773438 194.679688 189.949219 L 192.191406 175.417969 C 190.660156 167.003906 189.894531 158.402344 189.894531 149.796875 L 189.894531 80.585938 C 189.894531 76.378906 193.148438 72.9375 197.355469 72.9375 L 201.753906 72.9375 C 205.773438 72.9375 209.023438 76.378906 209.023438 80.585938 L 209.023438 149.605469 C 209.023438 158.210938 208.257812 166.8125 206.726562 175.417969 Z M 206.726562 175.417969 " fill-opacity="1" fillRule="nonzero"/><path fill="#ffffff" d="M 305.613281 68.730469 L 298.535156 65.863281 C 296.625 65.097656 294.519531 65.097656 292.605469 65.863281 C 290.695312 66.625 289.355469 68.15625 288.589844 70.066406 L 271.375 112.703125 L 257.222656 120.160156 C 256.457031 120.542969 255.691406 121.308594 255.5 122.074219 L 222.410156 203.714844 C 224.898438 204.097656 227.574219 204.671875 229.871094 205.433594 L 245.363281 167.003906 L 273.289062 178.476562 L 255.691406 222.070312 C 257.605469 224.363281 259.519531 226.65625 261.046875 229.144531 C 261.046875 229.144531 297.386719 138.898438 297.386719 138.898438 C 297.769531 138.132812 297.769531 137.179688 297.386719 136.222656 L 292.222656 120.925781 L 309.4375 78.289062 C 311.351562 74.65625 309.4375 70.257812 305.613281 68.730469 Z M 276.15625 119.015625 C 276.347656 118.824219 276.539062 118.824219 276.730469 118.632812 L 284.765625 121.882812 C 284.765625 122.074219 284.765625 122.265625 284.957031 122.457031 L 287.824219 131.25 L 268.125 123.222656 Z M 276.347656 171.59375 L 248.425781 160.121094 L 261.046875 128.574219 L 288.972656 139.855469 Z M 287.058594 114.425781 L 280.175781 111.558594 L 295.667969 72.9375 L 302.742188 75.804688 Z M 287.058594 114.425781 " fill-opacity="1" fillRule="nonzero"/><g clip-path="url(#3b312a4350)"><path fill="#ffffff" d="M 262.195312 254.382812 C 259.328125 229.714844 238.285156 210.597656 212.847656 210.597656 C 189.894531 210.597656 170.578125 226.273438 164.839844 247.496094 C 165.988281 248.261719 174.59375 254.761719 174.976562 255.144531 C 184.539062 251.128906 195.632812 251.703125 204.625 256.484375 C 196.972656 265.277344 191.234375 273.691406 187.410156 280.574219 C 186.644531 283.632812 185.113281 286.5 182.820312 288.988281 C 182.628906 289.371094 176.890625 294.53125 176.890625 294.53125 C 178.230469 296.0625 179.757812 297.398438 181.480469 298.738281 C 181.480469 298.738281 181.671875 298.929688 181.671875 298.929688 C 190.277344 305.8125 200.988281 310.019531 212.847656 310.019531 C 228.148438 310.019531 241.921875 303.136719 250.910156 292.238281 C 249.761719 288.796875 249.1875 285.164062 249.1875 281.53125 C 248.996094 281.722656 248.996094 281.914062 248.808594 282.105469 C 243.070312 267.574219 235.609375 255.335938 226.8125 245.394531 C 227.765625 244.4375 228.914062 243.675781 229.871094 242.910156 C 229.871094 242.910156 230.0625 243.101562 230.0625 243.101562 C 236.566406 249.601562 244.980469 253.425781 254.351562 254.382812 C 254.734375 256.292969 254.734375 258.394531 254.734375 260.5 C 254.734375 261.265625 254.734375 262.027344 254.734375 262.601562 C 256.839844 259.351562 259.328125 256.675781 262.195312 254.382812 Z M 212.847656 218.246094 C 214.953125 218.246094 216.863281 218.4375 218.96875 218.628906 C 219.542969 225.320312 221.839844 231.4375 225.28125 236.789062 C 224.132812 237.746094 222.792969 238.703125 221.648438 239.851562 C 211.316406 230.097656 201.371094 225.320312 194.105469 222.832031 C 199.652344 219.964844 205.960938 218.246094 212.847656 218.246094 Z M 172.683594 247.878906 C 174.976562 240.234375 179.566406 233.539062 185.496094 228.378906 C 190.851562 229.527344 203.09375 233.160156 215.71875 245.011719 C 213.804688 246.925781 211.699219 248.835938 209.789062 250.75 C 198.886719 244.054688 184.730469 242.910156 172.683594 247.878906 Z M 215.910156 302.179688 C 214.953125 302.179688 213.804688 302.371094 212.847656 302.371094 C 203.859375 302.371094 195.441406 299.503906 188.558594 294.53125 C 191.617188 288.222656 198.695312 275.03125 210.9375 261.074219 C 211.128906 261.265625 211.316406 261.457031 211.507812 261.644531 C 221.839844 272.164062 223.75 289.179688 215.910156 302.179688 Z M 243.453125 289.179688 C 238.476562 294.339844 232.359375 298.355469 225.28125 300.460938 C 231.210938 285.355469 228.148438 267.574219 216.863281 256.292969 C 216.671875 256.101562 216.292969 255.71875 216.101562 255.527344 C 217.820312 253.808594 219.542969 252.085938 221.265625 250.558594 C 230.253906 260.5 237.714844 273.5 243.453125 289.179688 Z M 226.8125 220.730469 C 231.210938 222.261719 235.226562 224.554688 238.667969 227.230469 C 236.183594 228.761719 233.695312 230.480469 231.210938 232.203125 C 229.105469 228.761719 227.574219 224.746094 226.8125 220.730469 Z M 236.183594 238.128906 C 238.859375 236.21875 241.730469 234.304688 244.597656 232.585938 C 248.042969 236.601562 250.71875 241.1875 252.632812 246.160156 C 246.320312 245.203125 240.582031 242.335938 236.183594 238.128906 Z M 236.183594 238.128906 " fill-opacity="1" fillRule="nonzero"/></g><path fill="#ffffff" d="M 283.617188 254.570312 C 268.890625 254.570312 256.839844 266.617188 256.839844 281.339844 C 256.839844 296.0625 268.890625 308.105469 283.617188 308.105469 C 298.34375 308.105469 310.394531 296.0625 310.394531 281.339844 C 310.394531 266.617188 298.34375 254.570312 283.617188 254.570312 Z M 267.933594 293.195312 C 265.445312 289.945312 263.917969 285.738281 263.917969 281.339844 C 263.917969 276.941406 265.445312 272.734375 267.933594 269.484375 C 270.609375 272.925781 272.140625 276.941406 272.140625 281.339844 C 272.140625 285.738281 270.609375 289.753906 267.933594 293.195312 Z M 293.5625 298.164062 C 290.695312 299.886719 287.25 300.839844 283.617188 300.839844 C 279.984375 300.839844 276.730469 299.886719 273.671875 298.164062 C 277.496094 293.386719 279.792969 287.457031 279.792969 281.339844 C 279.792969 275.222656 277.6875 269.292969 273.671875 264.515625 C 276.539062 262.792969 279.984375 261.835938 283.617188 261.835938 C 287.25 261.835938 290.503906 262.792969 293.5625 264.515625 C 289.738281 269.292969 287.441406 275.222656 287.441406 281.339844 C 287.441406 287.457031 289.546875 293.386719 293.5625 298.164062 Z M 299.300781 293.195312 C 296.625 289.753906 295.09375 285.738281 295.09375 281.339844 C 295.09375 276.941406 296.625 272.925781 299.300781 269.484375 C 301.789062 272.734375 303.316406 276.941406 303.316406 281.339844 C 303.125 285.738281 301.789062 289.945312 299.300781 293.195312 Z M 299.300781 293.195312 " fill-opacity="1" fillRule="nonzero"/></svg>