<svg xmlns="http://www.w3.org/2000/svg" xmlns:xlink="http://www.w3.org/1999/xlink" width="500" zoomAndPan="magnify" viewBox="0 0 375 374.999991" height="500" preserveAspectRatio="xMidYMid meet" version="1.0"><defs><clipPath id="c70cae01aa"><path d="M 63.5625 87 L 299 87 L 299 291.070312 L 63.5625 291.070312 Z M 63.5625 87 " clipRule="nonzero"/></clipPath><clipPath id="145f50ef12"><path d="M 212 84.070312 L 248 84.070312 L 248 109 L 212 109 Z M 212 84.070312 " clipRule="nonzero"/></clipPath></defs><rect x="-37.5" width="450" fill="#ffffff" y="-37.499999" height="449.999989" fill-opacity="1"/><rect x="-37.5" width="450" fill="#5e17eb" y="-37.499999" height="449.999989" fill-opacity="1"/><path fill="#ff2273" d="M 273.203125 132.46875 L 273.035156 132.082031 L 272.320312 131.953125 C 269.472656 118.109375 258.292969 107.027344 243.824219 103.421875 C 240.757812 98.917969 236.875 93.34375 235.5625 92.066406 C 234.375 90.894531 231.4375 90.171875 227.632812 90.078125 C 227.371094 89.75 227.140625 89.476562 226.980469 89.320312 C 225.410156 87.78125 217.714844 87.183594 210.542969 90.125 C 203.367188 93.066406 201.351562 95.863281 200.816406 98.253906 C 200.738281 98.609375 200.699219 99.160156 200.6875 99.808594 C 199.179688 101.394531 198.238281 103.078125 197.839844 104.890625 C 197.304688 107.292969 197.910156 114.941406 198.34375 119.492188 L 125.953125 141.480469 L 125.476562 141.726562 C 123.0625 140.496094 120.507812 139.488281 117.832031 138.722656 C 115.054688 134.195312 111.699219 128.871094 110.511719 127.585938 C 109.378906 126.359375 106.425781 125.496094 102.691406 125.21875 C 102.441406 124.875 102.222656 124.589844 102.070312 124.421875 C 100.578125 122.808594 92.921875 121.839844 85.613281 124.421875 C 78.300781 127.011719 76.148438 129.703125 75.503906 132.070312 C 75.410156 132.417969 75.34375 132.964844 75.296875 133.613281 C 73.71875 135.125 72.695312 136.757812 72.203125 138.550781 C 71.550781 140.957031 71.796875 148.816406 72.003906 153.355469 C 67.757812 158.976562 65.082031 165.703125 64.585938 172.984375 C 64.585938 172.984375 69.476562 253.699219 71.074219 265.816406 C 72.976562 280.226562 82.394531 289.421875 96.921875 290.265625 C 97.679688 290.308594 106.496094 290.214844 109.652344 289.019531 C 118.707031 285.589844 124.894531 277.441406 127.453125 265.636719 C 131.679688 246.140625 140.753906 208.332031 143.582031 205.695312 C 146.335938 203.132812 164.609375 197.1875 176.695312 193.320312 L 181.082031 191.867188 C 185.992188 190.285156 190.894531 188.613281 195.285156 187.140625 C 202.195312 184.820312 208.164062 182.804688 210.257812 182.382812 C 211.328125 182.167969 212.65625 181.898438 214.089844 181.898438 C 217.792969 181.898438 220.847656 183.769531 223.433594 187.625 C 232.421875 201.050781 254.863281 232.273438 269.019531 232.273438 C 269.21875 232.273438 269.414062 232.265625 269.605469 232.253906 C 287.761719 231.148438 297.761719 222.261719 297.761719 207.238281 C 297.765625 190.414062 274.203125 134.828125 273.203125 132.46875 Z M 273.203125 132.46875 " fill-opacity="1" fillRule="nonzero"/><g clip-path="url(#c70cae01aa)"><path fill="#000000" d="M 97.464844 291.070312 C 97.171875 291.070312 96.96875 291.066406 96.875 291.058594 C 82.191406 290.207031 72.253906 280.808594 70.289062 265.921875 C 68.707031 253.914062 63.847656 173.839844 63.796875 173.03125 C 64.28125 165.8125 66.84375 158.960938 71.199219 153.105469 C 70.953125 147.601562 70.804688 140.691406 71.441406 138.339844 C 71.941406 136.507812 72.976562 134.800781 74.53125 133.253906 C 74.582031 132.648438 74.648438 132.191406 74.738281 131.859375 C 75.652344 128.511719 79.023438 125.914062 85.351562 123.675781 C 89.1875 122.316406 92.710938 122.035156 94.996094 122.035156 C 98.664062 122.035156 101.597656 122.742188 102.652344 123.882812 C 102.773438 124.015625 102.933594 124.214844 103.113281 124.457031 C 106.976562 124.785156 109.875 125.722656 111.09375 127.046875 C 112.078125 128.113281 114.519531 131.8125 118.347656 138.046875 C 120.804688 138.765625 123.199219 139.703125 125.476562 140.835938 L 125.59375 140.777344 L 197.492188 118.921875 C 197 113.574219 196.558594 107.019531 197.066406 104.71875 C 197.484375 102.835938 198.414062 101.121094 199.902344 99.488281 C 199.925781 98.882812 199.972656 98.421875 200.042969 98.085938 C 200.796875 94.695312 204.039062 91.933594 210.242188 89.390625 C 213.613281 88.007812 217.464844 87.246094 221.082031 87.246094 C 224.164062 87.246094 226.578125 87.808594 227.539062 88.75 C 227.664062 88.875 227.832031 89.066406 228.019531 89.296875 C 230.453125 89.382812 234.394531 89.796875 236.121094 91.5 C 237.191406 92.546875 239.945312 96.324219 244.308594 102.722656 C 258.765625 106.4375 269.949219 117.582031 272.984375 131.265625 L 273.597656 131.375 L 273.929688 132.160156 C 274.9375 134.523438 298.558594 190.261719 298.558594 207.238281 C 298.558594 222.746094 288.292969 231.910156 269.660156 233.046875 C 269.449219 233.058594 269.238281 233.066406 269.023438 233.066406 C 254.480469 233.066406 231.835938 201.597656 222.777344 188.066406 C 220.351562 184.449219 217.511719 182.691406 214.089844 182.691406 C 212.75 182.691406 211.476562 182.945312 210.457031 183.152344 C 208.457031 183.554688 202.855469 185.433594 196.375 187.613281 L 192.714844 188.84375 C 189.089844 190.0625 185.210938 191.371094 181.328125 192.621094 L 176.945312 194.074219 C 167.953125 196.953125 146.90625 203.6875 144.125 206.277344 C 141.71875 208.515625 133.199219 242.898438 128.230469 265.804688 C 125.597656 277.941406 119.273438 286.226562 109.9375 289.761719 C 106.519531 291.054688 97.554688 291.070312 97.464844 291.070312 Z M 94.992188 123.621094 C 92.835938 123.621094 89.5 123.890625 85.878906 125.171875 C 78.269531 127.863281 76.75 130.515625 76.269531 132.277344 C 76.21875 132.46875 76.144531 132.867188 76.089844 133.664062 L 76.070312 133.972656 L 75.847656 134.1875 C 74.363281 135.605469 73.421875 137.101562 72.972656 138.757812 C 72.511719 140.441406 72.449219 145.75 72.796875 153.320312 L 72.8125 153.605469 L 72.636719 153.835938 C 68.359375 159.492188 65.847656 166.132812 65.378906 173.039062 C 65.429688 173.742188 70.289062 253.761719 71.863281 265.714844 C 73.746094 279.996094 82.894531 288.65625 96.96875 289.472656 C 97.046875 289.480469 97.21875 289.480469 97.464844 289.480469 C 99.726562 289.480469 106.777344 289.261719 109.378906 288.277344 C 118.183594 284.945312 124.167969 277.054688 126.679688 265.464844 C 129.269531 253.527344 139.636719 208.285156 143.042969 205.117188 C 145.71875 202.625 160.683594 197.613281 176.457031 192.566406 L 180.835938 191.113281 C 184.714844 189.863281 188.589844 188.554688 192.210938 187.335938 L 195.867188 186.105469 C 202.402344 183.914062 208.046875 182.019531 210.101562 181.605469 C 211.234375 181.375 212.59375 181.105469 214.089844 181.105469 C 218.078125 181.105469 221.347656 183.09375 224.089844 187.179688 C 233.011719 200.5 255.242188 231.480469 269.023438 231.480469 C 269.203125 231.480469 269.382812 231.472656 269.558594 231.460938 C 287.238281 230.382812 296.972656 221.78125 296.972656 207.238281 C 296.972656 190.597656 273.519531 135.242188 272.476562 132.789062 L 271.65625 132.640625 L 271.546875 132.113281 C 268.785156 118.691406 257.828125 107.730469 243.632812 104.191406 L 243.339844 104.121094 L 243.167969 103.867188 C 238.890625 97.585938 235.992188 93.59375 235.007812 92.632812 C 234.214844 91.851562 231.855469 90.980469 227.613281 90.875 L 227.242188 90.867188 L 227.011719 90.578125 C 226.777344 90.277344 226.570312 90.027344 226.425781 89.886719 C 225.910156 89.382812 224.015625 88.835938 221.078125 88.835938 C 219.101562 88.835938 215.136719 89.101562 210.839844 90.863281 C 203.375 93.921875 201.984375 96.644531 201.585938 98.429688 C 201.546875 98.621094 201.492188 99.023438 201.476562 99.824219 L 201.46875 100.132812 L 201.257812 100.355469 C 199.847656 101.84375 198.980469 103.382812 198.609375 105.0625 C 198.234375 106.746094 198.425781 111.980469 199.128906 119.417969 L 199.1875 120.066406 L 126.183594 142.242188 L 125.480469 142.621094 L 125.121094 142.433594 C 122.734375 141.21875 120.210938 140.230469 117.617188 139.488281 L 117.320312 139.402344 L 117.160156 139.140625 C 113.402344 133.015625 110.832031 129.105469 109.929688 128.125 C 108.96875 127.085938 106.171875 126.273438 102.632812 126.011719 L 102.265625 125.984375 L 102.050781 125.683594 C 101.824219 125.371094 101.628906 125.113281 101.488281 124.960938 C 100.890625 124.3125 98.40625 123.621094 94.992188 123.621094 Z M 94.992188 123.621094 " fill-opacity="1" fillRule="nonzero"/></g><path fill="#000000" d="M 223.433594 187.625 C 224.699219 189.515625 226.242188 191.765625 227.980469 194.226562 C 228.378906 194.789062 229.183594 193.53125 229.214844 193.191406 C 229.335938 191.851562 228.1875 190.65625 227.90625 189.402344 C 227.53125 187.757812 228.941406 186.542969 230.5625 187.300781 C 232.894531 188.386719 234.238281 190.890625 236.433594 192.171875 C 238.746094 193.523438 241.136719 193.144531 243.28125 191.609375 C 246.285156 189.457031 247.476562 186.039062 246.574219 182.445312 C 245.019531 176.234375 240.640625 171.886719 234.992188 169.125 C 222.960938 163.242188 208.238281 163.238281 199.96875 175.0625 C 197.28125 178.902344 195.292969 183.171875 193.820312 187.632812 C 194.304688 187.46875 194.808594 187.296875 195.285156 187.136719 C 202.199219 184.816406 208.167969 182.800781 210.261719 182.378906 C 211.328125 182.167969 212.65625 181.898438 214.09375 181.898438 C 217.792969 181.898438 220.851562 183.769531 223.433594 187.625 Z M 223.433594 187.625 " fill-opacity="1" fillRule="nonzero"/><path fill="#000000" d="M 284.121094 221.308594 C 277.992188 217.441406 260.894531 210.695312 261.777344 223.996094 C 261.886719 225.6875 257.832031 223.8125 257.164062 223.589844 C 256.179688 223.261719 255.191406 222.941406 254.171875 222.738281 C 253.863281 222.675781 251.902344 222.765625 251.804688 222.671875 C 257.9375 228.339844 264 232.273438 269.023438 232.273438 C 269.21875 232.273438 269.414062 232.265625 269.609375 232.253906 C 278.007812 231.742188 284.636719 229.546875 289.363281 225.871094 C 287.773438 224.109375 286.042969 222.523438 284.121094 221.308594 Z M 284.121094 221.308594 " fill-opacity="1" fillRule="nonzero"/><path fill="#000000" d="M 285.015625 231.125 L 272.101562 232.8125 L 278.871094 220.214844 Z M 285.015625 231.125 " fill-opacity="1" fillRule="nonzero"/><path fill="#000000" d="M 193.230469 121.046875 C 198.179688 124.554688 204.171875 126.699219 210.128906 127.527344 C 220.648438 128.992188 229.410156 126.414062 236.765625 118.601562 C 240.757812 114.359375 244.78125 109.835938 246.941406 104.34375 C 245.917969 104 244.882812 103.683594 243.824219 103.421875 C 240.757812 98.917969 236.875 93.347656 235.5625 92.066406 C 234.375 90.894531 231.4375 90.171875 227.632812 90.082031 C 227.371094 89.75 227.140625 89.476562 226.980469 89.320312 C 225.410156 87.78125 217.714844 87.1875 210.542969 90.125 C 203.367188 93.066406 201.351562 95.863281 200.816406 98.257812 C 200.738281 98.609375 200.699219 99.160156 200.6875 99.808594 C 199.179688 101.398438 198.238281 103.078125 197.839844 104.890625 C 197.304688 107.292969 197.910156 114.941406 198.34375 119.492188 Z M 193.230469 121.046875 " fill-opacity="1" fillRule="nonzero"/><path fill="#000000" d="M 113.863281 285.121094 C 107.308594 277.730469 100.164062 269.222656 91.714844 263.953125 C 89.46875 262.554688 87.109375 261.304688 84.933594 259.796875 C 82.550781 258.140625 80.71875 257.636719 79.414062 260.625 C 78.859375 261.894531 77.800781 265.386719 75.9375 265.386719 C 74.171875 265.386719 73.839844 261.484375 73.15625 260.515625 C 72.179688 259.128906 71.316406 260.285156 70.660156 261.980469 C 70.816406 263.601562 70.957031 264.910156 71.074219 265.816406 C 72.976562 280.226562 82.394531 289.425781 96.921875 290.265625 C 97.679688 290.3125 106.753906 290.15625 110 288.867188 C 111.726562 288.175781 113.347656 287.316406 114.859375 286.289062 C 114.523438 285.902344 114.199219 285.507812 113.863281 285.121094 Z M 113.863281 285.121094 " fill-opacity="1" fillRule="nonzero"/><path fill="#000000" d="M 105.1875 290.675781 C 107.246094 290.371094 114.859375 289.011719 114.859375 289.011719 L 106.769531 283.453125 Z M 105.1875 290.675781 " fill-opacity="1" fillRule="nonzero"/><path fill="#000000" d="M 65.105469 181.421875 C 65.34375 182.007812 65.65625 182.519531 66.09375 182.886719 C 68.0625 184.546875 68.90625 181.246094 69.679688 180.144531 C 69.960938 179.738281 70.550781 179.582031 70.921875 179.980469 C 73.75 183.023438 72.078125 189.347656 76.941406 190.621094 C 83.757812 192.40625 88.230469 187.066406 90.277344 181.222656 C 93.457031 172.148438 95.039062 162.667969 99.429688 154.007812 C 103.351562 146.265625 108.710938 139.714844 114.761719 133.792969 C 112.9375 130.910156 111.273438 128.410156 110.511719 127.585938 C 109.378906 126.359375 106.425781 125.496094 102.691406 125.21875 C 102.441406 124.875 102.222656 124.589844 102.070312 124.425781 C 100.578125 122.808594 92.921875 121.839844 85.613281 124.425781 C 78.300781 127.011719 76.148438 129.703125 75.503906 132.070312 C 75.410156 132.417969 75.34375 132.964844 75.296875 133.613281 C 73.71875 135.125 72.695312 136.757812 72.203125 138.550781 C 71.550781 140.957031 71.796875 148.816406 72.003906 153.355469 C 67.757812 158.976562 65.082031 165.703125 64.585938 172.984375 C 64.585938 172.984375 64.78125 176.195312 65.105469 181.421875 Z M 65.105469 181.421875 " fill-opacity="1" fillRule="nonzero"/><g clip-path="url(#145f50ef12)"><path fill="#000000" d="M 213.03125 108.335938 C 213.03125 108.335938 211.859375 97.757812 212.394531 95.328125 C 212.933594 92.898438 214.980469 90.058594 222.265625 87.074219 C 229.550781 84.089844 237.363281 84.691406 238.957031 86.257812 C 240.550781 87.820312 247.863281 98.851562 247.863281 98.851562 Z M 213.03125 108.335938 " fill-opacity="1" fillRule="nonzero"/></g><path fill="#ffd33b" d="M 211.03125 120.34375 C 211.03125 120.34375 209.398438 105.617188 210.144531 102.238281 C 210.894531 98.855469 213.742188 94.902344 223.882812 90.75 C 234.027344 86.59375 244.898438 87.433594 247.117188 89.609375 C 249.339844 91.789062 259.519531 107.140625 259.519531 107.140625 Z M 211.03125 120.34375 " fill-opacity="1" fillRule="nonzero"/><path fill="#000000" d="M 210.34375 121.351562 L 210.242188 120.429688 C 210.175781 119.824219 208.605469 105.535156 209.371094 102.066406 C 210.402344 97.394531 214.921875 93.566406 223.582031 90.015625 C 229.964844 87.398438 235.839844 87.007812 238.777344 87.007812 C 243.050781 87.007812 246.375 87.769531 247.671875 89.042969 C 249.925781 91.253906 259.761719 106.074219 260.175781 106.703125 L 260.785156 107.621094 Z M 238.777344 88.597656 C 235.957031 88.597656 230.316406 88.972656 224.183594 91.484375 C 213.492188 95.867188 211.492188 99.816406 210.917969 102.410156 C 210.371094 104.894531 211.234375 114.722656 211.71875 119.332031 L 258.25 106.664062 C 254.589844 101.171875 248.179688 91.761719 246.5625 90.179688 C 245.761719 89.390625 243.042969 88.597656 238.777344 88.597656 Z M 238.777344 88.597656 " fill-opacity="1" fillRule="nonzero"/><path fill="#000000" d="M 85.175781 142.675781 C 85.175781 142.675781 84.519531 132.054688 85.175781 129.65625 C 85.832031 127.253906 88.015625 124.519531 95.441406 121.894531 C 102.859375 119.269531 110.632812 120.253906 112.148438 121.894531 C 113.664062 123.535156 120.429688 134.910156 120.429688 134.910156 Z M 85.175781 142.675781 " fill-opacity="1" fillRule="nonzero"/><path fill="#ffd33b" d="M 82.59375 154.574219 C 82.59375 154.574219 81.679688 139.785156 82.59375 136.445312 C 83.503906 133.105469 86.546875 129.296875 96.875 125.644531 C 107.207031 121.988281 118.027344 123.359375 120.132812 125.644531 C 122.246094 127.925781 131.667969 143.761719 131.667969 143.761719 Z M 82.59375 154.574219 " fill-opacity="1" fillRule="nonzero"/><path fill="#000000" d="M 81.859375 155.546875 L 81.800781 154.621094 C 81.765625 154.011719 80.894531 139.664062 81.828125 136.234375 C 83.089844 131.621094 87.785156 128.015625 96.613281 124.894531 C 101.992188 122.992188 106.933594 122.59375 110.132812 122.59375 C 115.15625 122.59375 119.308594 123.578125 120.71875 125.105469 C 122.863281 127.421875 131.960938 142.707031 132.347656 143.355469 L 132.910156 144.300781 Z M 110.132812 124.183594 C 107.054688 124.183594 102.304688 124.566406 97.140625 126.390625 C 86.242188 130.246094 84.054688 134.09375 83.355469 136.652344 C 82.6875 139.109375 83.070312 148.96875 83.328125 153.597656 L 130.421875 143.222656 C 127.035156 137.558594 121.089844 127.84375 119.554688 126.183594 C 118.636719 125.1875 115.105469 124.183594 110.132812 124.183594 Z M 110.132812 124.183594 " fill-opacity="1" fillRule="nonzero"/><path fill="#ffd33b" d="M 74 172.121094 C 74 172.121094 79.828125 252.855469 81.46875 265.277344 C 83.105469 277.703125 90.824219 288.019531 106.964844 288.957031 C 123.105469 289.894531 133.636719 280.753906 137.144531 264.574219 C 140.652344 248.398438 150.476562 206.671875 153.75 203.621094 C 157.027344 200.574219 179.019531 193.777344 192.117188 189.558594 C 205.21875 185.335938 218.316406 180.648438 221.828125 179.945312 C 225.335938 179.242188 231.011719 178.148438 236.011719 185.609375 C 241.011719 193.074219 266.976562 231.496094 282.183594 230.570312 C 297.386719 229.644531 310.023438 223.078125 310.023438 205.964844 C 310.023438 188.851562 285.148438 130.375 285.148438 130.375 L 211.472656 117.230469 L 136.753906 139.910156 Z M 74 172.121094 " fill-opacity="1" fillRule="nonzero"/><path fill="#000000" d="M 109.199219 289.460938 C 108.453125 289.460938 107.691406 289.613281 106.917969 289.570312 C 92.171875 288.714844 82.609375 279.921875 80.683594 265.292969 C 79.0625 252.988281 73.269531 172.941406 73.210938 172.132812 L 136.394531 139.175781 L 211.429688 116.402344 L 285.710938 129.660156 L 285.878906 130.058594 C 286.898438 132.453125 310.816406 188.886719 310.816406 205.964844 C 310.816406 221.21875 300.664062 230.238281 282.234375 231.363281 C 282.035156 231.375 281.835938 231.382812 281.636719 231.382812 C 267.265625 231.382812 244.484375 199.683594 235.355469 186.050781 C 232.730469 182.136719 229.628906 180.234375 225.871094 180.234375 C 224.414062 180.234375 223.066406 180.507812 221.984375 180.722656 C 219.855469 181.148438 213.796875 183.183594 206.78125 185.539062 C 202.324219 187.035156 197.34375 188.707031 192.363281 190.3125 L 187.910156 191.738281 C 175.636719 195.667969 157.089844 201.601562 154.292969 204.207031 C 151.417969 206.878906 142.210938 244.777344 137.917969 264.566406 C 134.410156 280.734375 124.210938 289.460938 109.199219 289.460938 Z M 74.828125 172.585938 C 75.335938 179.574219 80.707031 253.4375 82.253906 265.175781 C 84.074219 278.976562 93.097656 287.355469 107.011719 288.164062 C 122.429688 289.0625 132.871094 280.542969 136.371094 264.410156 C 136.492188 263.835938 148.972656 206.988281 153.214844 203.042969 C 156.039062 200.414062 170.382812 195.683594 187.425781 190.226562 L 191.875 188.800781 C 196.851562 187.195312 201.828125 185.527344 206.277344 184.035156 C 213.636719 181.566406 219.449219 179.613281 221.671875 179.167969 C 222.761719 178.949219 224.257812 178.648438 225.871094 178.648438 C 230.199219 178.648438 233.730469 180.78125 236.667969 185.167969 C 245.65625 198.585938 268.027344 229.796875 281.636719 229.796875 C 281.804688 229.796875 281.972656 229.789062 282.136719 229.78125 C 294.496094 229.027344 309.230469 224.285156 309.230469 205.96875 C 309.230469 189.941406 286.765625 136.242188 284.589844 131.082031 L 211.523438 118.046875 L 136.984375 140.671875 Z M 74.828125 172.585938 " fill-opacity="1" fillRule="nonzero"/><path fill="#ffd33b" d="M 285.710938 136.59375 C 285.710938 157.191406 267.792969 173.886719 245.683594 173.886719 C 223.582031 173.886719 205.660156 157.191406 205.660156 136.59375 C 205.660156 116 223.582031 99.300781 245.683594 99.300781 C 267.792969 99.300781 285.710938 116 285.710938 136.59375 Z M 285.710938 136.59375 " fill-opacity="1" fillRule="nonzero"/><path fill="#000000" d="M 245.6875 174.683594 C 223.179688 174.683594 204.871094 157.597656 204.871094 136.59375 C 204.871094 115.59375 223.179688 98.507812 245.6875 98.507812 C 268.195312 98.507812 286.503906 115.59375 286.503906 136.59375 C 286.503906 157.597656 268.191406 174.683594 245.6875 174.683594 Z M 245.6875 100.09375 C 224.054688 100.09375 206.457031 116.46875 206.457031 136.59375 C 206.457031 156.71875 224.054688 173.09375 245.6875 173.09375 C 267.320312 173.09375 284.917969 156.71875 284.917969 136.59375 C 284.917969 116.46875 267.320312 100.09375 245.6875 100.09375 Z M 245.6875 100.09375 " fill-opacity="1" fillRule="nonzero"/><path fill="#ffd33b" d="M 157.707031 173.695312 C 157.707031 195.234375 138.96875 212.695312 115.851562 212.695312 C 92.738281 212.695312 74 195.234375 74 173.695312 C 74 152.15625 92.738281 134.699219 115.851562 134.699219 C 138.972656 134.699219 157.707031 152.15625 157.707031 173.695312 Z M 157.707031 173.695312 " fill-opacity="1" fillRule="nonzero"/><path fill="#000000" d="M 115.851562 213.488281 C 92.339844 213.488281 73.210938 195.636719 73.210938 173.695312 C 73.210938 151.753906 92.339844 133.902344 115.851562 133.902344 C 139.371094 133.902344 158.5 151.753906 158.5 173.695312 C 158.5 195.636719 139.367188 213.488281 115.851562 213.488281 Z M 115.851562 135.492188 C 93.210938 135.492188 74.792969 152.628906 74.792969 173.695312 C 74.792969 194.761719 93.210938 211.902344 115.851562 211.902344 C 138.496094 211.902344 156.914062 194.761719 156.914062 173.695312 C 156.914062 152.628906 138.496094 135.492188 115.851562 135.492188 Z M 115.851562 135.492188 " fill-opacity="1" fillRule="nonzero"/><path fill="#ffffff" d="M 117.710938 202.816406 L 117.707031 202.816406 C 115.976562 202.816406 114.445312 201.753906 113.894531 200.109375 L 109.042969 186.4375 L 92.308594 191.269531 C 90.222656 191.867188 87.933594 190.597656 87.335938 188.519531 L 83.175781 174.015625 C 82.878906 172.980469 83 171.894531 83.523438 170.953125 C 84.042969 170.011719 84.894531 169.332031 85.929688 169.035156 L 101.292969 164.609375 L 96.613281 151.414062 C 95.90625 149.289062 97.050781 147.003906 99.152344 146.304688 L 113.441406 141.535156 C 115.511719 140.84375 117.839844 142.023438 118.523438 144.085938 L 123.527344 158.199219 L 141.746094 152.949219 C 143.828125 152.347656 146.121094 153.628906 146.71875 155.707031 L 150.878906 170.210938 C 151.175781 171.246094 151.050781 172.335938 150.53125 173.277344 C 150.011719 174.214844 149.15625 174.898438 148.125 175.195312 L 131.277344 180.050781 L 135.808594 192.824219 C 136.152344 193.859375 136.074219 194.953125 135.59375 195.914062 C 135.113281 196.875 134.285156 197.589844 133.265625 197.929688 L 118.980469 202.652344 C 118.566406 202.792969 118.140625 202.816406 117.710938 202.816406 Z M 110.035156 184.523438 L 115.394531 199.644531 C 115.730469 200.65625 116.660156 201.332031 117.710938 201.332031 C 117.96875 201.332031 118.230469 201.285156 118.480469 201.199219 L 132.765625 196.425781 C 133.386719 196.222656 133.886719 195.785156 134.175781 195.203125 C 134.46875 194.621094 134.515625 193.960938 134.308594 193.339844 L 129.222656 178.992188 L 147.6875 173.667969 C 148.3125 173.488281 148.832031 173.074219 149.148438 172.507812 C 149.460938 171.933594 149.535156 171.277344 149.355469 170.648438 L 145.195312 156.144531 C 144.835938 154.886719 143.457031 154.113281 142.183594 154.476562 L 122.535156 160.136719 L 117.027344 144.601562 C 116.605469 143.332031 115.195312 142.617188 113.941406 143.042969 L 99.652344 147.808594 C 98.378906 148.234375 97.691406 149.617188 98.113281 150.894531 L 103.351562 165.667969 L 86.367188 170.558594 C 85.742188 170.738281 85.226562 171.152344 84.910156 171.722656 C 84.59375 172.292969 84.519531 172.953125 84.699219 173.578125 L 88.859375 188.085938 C 89.21875 189.339844 90.605469 190.121094 91.875 189.753906 Z M 110.035156 184.523438 " fill-opacity="1" fillRule="nonzero"/><path fill="#ffffff" d="M 246.789062 164.101562 C 245.054688 164.101562 243.519531 162.996094 242.972656 161.347656 L 238.121094 147.65625 L 221.386719 152.476562 C 219.296875 153.082031 217.011719 151.796875 216.414062 149.71875 L 212.253906 135.214844 C 211.644531 133.082031 212.878906 130.84375 215.003906 130.230469 L 230.371094 125.804688 L 225.691406 112.609375 C 224.988281 110.484375 226.128906 108.199219 228.230469 107.5 L 242.515625 102.730469 C 244.59375 102.039062 246.921875 103.222656 247.601562 105.28125 L 252.605469 119.394531 L 270.824219 114.148438 C 272.910156 113.546875 275.199219 114.828125 275.796875 116.90625 L 279.957031 131.40625 C 280.570312 133.542969 279.335938 135.777344 277.207031 136.390625 L 260.359375 141.246094 L 264.886719 154.019531 C 265.59375 156.140625 264.449219 158.425781 262.351562 159.128906 L 248.0625 163.894531 C 247.648438 164.03125 247.21875 164.101562 246.789062 164.101562 Z M 239.113281 145.714844 L 244.472656 160.828125 C 244.894531 162.097656 246.300781 162.808594 247.558594 162.386719 L 261.84375 157.621094 C 263.117188 157.195312 263.8125 155.8125 263.386719 154.535156 L 258.296875 140.1875 L 276.765625 134.867188 C 278.054688 134.496094 278.804688 133.140625 278.433594 131.847656 L 274.273438 117.34375 C 273.910156 116.082031 272.53125 115.304688 271.261719 115.671875 L 251.613281 121.335938 L 246.101562 105.796875 C 245.683594 104.53125 244.28125 103.8125 243.015625 104.238281 L 228.730469 109.003906 C 227.460938 109.429688 226.765625 110.816406 227.191406 112.09375 L 232.429688 126.863281 L 215.445312 131.757812 C 214.15625 132.128906 213.40625 133.484375 213.777344 134.777344 L 217.9375 149.28125 C 218.300781 150.539062 219.683594 151.316406 220.953125 150.953125 Z M 239.113281 145.714844 " fill-opacity="1" fillRule="nonzero"/><path fill="#000000" d="M 234.996094 138.402344 C 234.996094 138.929688 234.941406 139.453125 234.839844 139.96875 C 234.738281 140.488281 234.585938 140.988281 234.382812 141.476562 C 234.183594 141.964844 233.9375 142.425781 233.644531 142.863281 C 233.351562 143.304688 233.019531 143.707031 232.648438 144.082031 C 232.277344 144.453125 231.871094 144.785156 231.433594 145.078125 C 230.996094 145.371094 230.535156 145.621094 230.046875 145.820312 C 229.5625 146.023438 229.0625 146.175781 228.546875 146.277344 C 228.03125 146.382812 227.507812 146.433594 226.984375 146.433594 C 226.457031 146.433594 225.933594 146.382812 225.417969 146.277344 C 224.902344 146.175781 224.402344 146.023438 223.917969 145.820312 C 223.429688 145.621094 222.96875 145.371094 222.53125 145.078125 C 222.09375 144.785156 221.6875 144.453125 221.316406 144.082031 C 220.945312 143.707031 220.613281 143.304688 220.320312 142.863281 C 220.027344 142.425781 219.78125 141.964844 219.582031 141.476562 C 219.378906 140.988281 219.226562 140.488281 219.125 139.96875 C 219.023438 139.453125 218.972656 138.929688 218.972656 138.402344 C 218.972656 137.875 219.023438 137.355469 219.125 136.835938 C 219.226562 136.320312 219.378906 135.820312 219.582031 135.332031 C 219.78125 134.84375 220.027344 134.382812 220.320312 133.941406 C 220.613281 133.503906 220.945312 133.097656 221.316406 132.726562 C 221.6875 132.355469 222.09375 132.019531 222.53125 131.726562 C 222.96875 131.433594 223.429688 131.1875 223.917969 130.984375 C 224.402344 130.785156 224.902344 130.632812 225.417969 130.527344 C 225.933594 130.425781 226.457031 130.375 226.984375 130.375 C 227.507812 130.375 228.03125 130.425781 228.546875 130.527344 C 229.0625 130.632812 229.5625 130.785156 230.046875 130.984375 C 230.535156 131.1875 230.996094 131.433594 231.433594 131.726562 C 231.871094 132.019531 232.277344 132.355469 232.648438 132.726562 C 233.019531 133.097656 233.351562 133.503906 233.644531 133.941406 C 233.9375 134.382812 234.183594 134.84375 234.382812 135.332031 C 234.585938 135.820312 234.738281 136.320312 234.839844 136.835938 C 234.941406 137.355469 234.996094 137.875 234.996094 138.402344 Z M 234.996094 138.402344 " fill-opacity="1" fillRule="nonzero"/><path fill="#000000" d="M 226.980469 147.226562 C 222.128906 147.226562 218.179688 143.269531 218.179688 138.40625 C 218.179688 133.539062 222.128906 129.578125 226.980469 129.578125 C 231.835938 129.578125 235.785156 133.539062 235.785156 138.40625 C 235.785156 143.269531 231.835938 147.226562 226.980469 147.226562 Z M 226.980469 131.167969 C 223 131.167969 219.761719 134.414062 219.761719 138.402344 C 219.761719 142.394531 223.003906 145.640625 226.980469 145.640625 C 230.964844 145.640625 234.199219 142.394531 234.199219 138.402344 C 234.199219 134.414062 230.964844 131.167969 226.980469 131.167969 Z M 226.980469 131.167969 " fill-opacity="1" fillRule="nonzero"/><path fill="#000000" d="M 247.8125 116.277344 C 247.8125 116.796875 247.761719 117.3125 247.660156 117.824219 C 247.558594 118.335938 247.410156 118.832031 247.210938 119.316406 C 247.011719 119.796875 246.765625 120.253906 246.476562 120.6875 C 246.1875 121.121094 245.859375 121.523438 245.492188 121.890625 C 245.125 122.257812 244.726562 122.589844 244.292969 122.878906 C 243.859375 123.167969 243.402344 123.410156 242.921875 123.609375 C 242.441406 123.8125 241.945312 123.960938 241.4375 124.0625 C 240.925781 124.164062 240.410156 124.214844 239.890625 124.214844 C 239.371094 124.214844 238.855469 124.164062 238.347656 124.0625 C 237.835938 123.960938 237.339844 123.8125 236.859375 123.609375 C 236.378906 123.410156 235.921875 123.167969 235.488281 122.878906 C 235.058594 122.589844 234.65625 122.257812 234.289062 121.890625 C 233.921875 121.523438 233.59375 121.121094 233.304688 120.6875 C 233.015625 120.253906 232.769531 119.796875 232.574219 119.316406 C 232.375 118.832031 232.222656 118.335938 232.121094 117.824219 C 232.019531 117.3125 231.96875 116.796875 231.96875 116.277344 C 231.96875 115.753906 232.019531 115.238281 232.121094 114.726562 C 232.222656 114.214844 232.375 113.71875 232.574219 113.238281 C 232.769531 112.757812 233.015625 112.300781 233.304688 111.867188 C 233.59375 111.433594 233.921875 111.03125 234.289062 110.664062 C 234.65625 110.292969 235.058594 109.964844 235.488281 109.675781 C 235.921875 109.386719 236.378906 109.140625 236.859375 108.941406 C 237.339844 108.742188 237.835938 108.59375 238.347656 108.492188 C 238.855469 108.386719 239.371094 108.335938 239.890625 108.335938 C 240.410156 108.335938 240.925781 108.386719 241.4375 108.492188 C 241.945312 108.59375 242.441406 108.742188 242.921875 108.941406 C 243.402344 109.140625 243.859375 109.386719 244.292969 109.675781 C 244.726562 109.964844 245.125 110.292969 245.492188 110.664062 C 245.859375 111.03125 246.1875 111.433594 246.476562 111.867188 C 246.765625 112.300781 247.011719 112.757812 247.210938 113.238281 C 247.410156 113.71875 247.558594 114.214844 247.660156 114.726562 C 247.761719 115.238281 247.8125 115.753906 247.8125 116.277344 Z M 247.8125 116.277344 " fill-opacity="1" fillRule="nonzero"/><path fill="#000000" d="M 239.890625 125.007812 C 235.085938 125.007812 231.175781 121.089844 231.175781 116.277344 C 231.175781 111.460938 235.085938 107.542969 239.890625 107.542969 C 244.695312 107.542969 248.605469 111.460938 248.605469 116.277344 C 248.605469 121.09375 244.695312 125.007812 239.890625 125.007812 Z M 239.890625 109.128906 C 235.960938 109.128906 232.761719 112.335938 232.761719 116.277344 C 232.761719 120.214844 235.960938 123.421875 239.890625 123.421875 C 243.824219 123.421875 247.019531 120.214844 247.019531 116.277344 C 247.019531 112.335938 243.824219 109.128906 239.890625 109.128906 Z M 239.890625 109.128906 " fill-opacity="1" fillRule="nonzero"/><path fill="#000000" d="M 273.71875 127.625 C 273.71875 132.058594 270.132812 135.652344 265.703125 135.652344 C 261.28125 135.652344 257.695312 132.058594 257.695312 127.625 C 257.695312 123.191406 261.28125 119.59375 265.703125 119.59375 C 270.132812 119.59375 273.71875 123.191406 273.71875 127.625 Z M 273.71875 127.625 " fill-opacity="1" fillRule="nonzero"/><path fill="#000000" d="M 265.703125 136.449219 C 260.851562 136.449219 256.902344 132.488281 256.902344 127.625 C 256.902344 122.757812 260.851562 118.800781 265.703125 118.800781 C 270.558594 118.800781 274.511719 122.757812 274.511719 127.625 C 274.511719 132.488281 270.558594 136.449219 265.703125 136.449219 Z M 265.703125 120.386719 C 261.722656 120.386719 258.488281 123.632812 258.488281 127.625 C 258.488281 131.613281 261.726562 134.859375 265.703125 134.859375 C 269.6875 134.859375 272.925781 131.613281 272.925781 127.625 C 272.925781 123.632812 269.6875 120.386719 265.703125 120.386719 Z M 265.703125 120.386719 " fill-opacity="1" fillRule="nonzero"/><path fill="#ff2273" d="M 264.304688 134.640625 C 264.226562 134.640625 264.144531 134.628906 264.0625 134.601562 C 263.832031 134.53125 263.652344 134.355469 263.566406 134.128906 L 262.296875 130.785156 L 259.496094 128.570312 C 259.304688 128.417969 259.199219 128.191406 259.195312 127.949219 C 259.191406 127.707031 259.304688 127.476562 259.492188 127.328125 L 262.277344 125.085938 L 263.511719 121.730469 C 263.59375 121.503906 263.777344 121.328125 264.007812 121.253906 C 264.234375 121.175781 264.488281 121.210938 264.691406 121.34375 L 267.671875 123.304688 L 271.242188 123.445312 C 271.480469 123.453125 271.707031 123.574219 271.847656 123.765625 C 271.988281 123.964844 272.035156 124.210938 271.972656 124.445312 L 271.035156 127.898438 L 272.003906 131.339844 C 272.070312 131.574219 272.027344 131.824219 271.886719 132.019531 C 271.746094 132.214844 271.519531 132.335938 271.28125 132.347656 L 267.714844 132.519531 L 264.746094 134.507812 C 264.613281 134.59375 264.460938 134.640625 264.304688 134.640625 Z M 261.261719 127.941406 L 263.453125 129.671875 C 263.566406 129.761719 263.652344 129.878906 263.703125 130.015625 L 264.695312 132.632812 L 267.015625 131.078125 C 267.136719 130.996094 267.273438 130.953125 267.417969 130.945312 L 270.210938 130.808594 L 269.453125 128.117188 C 269.414062 127.976562 269.414062 127.832031 269.449219 127.691406 L 270.183594 124.992188 L 267.390625 124.882812 C 267.246094 124.875 267.109375 124.832031 266.988281 124.753906 L 264.652344 123.21875 L 263.683594 125.84375 C 263.632812 125.980469 263.550781 126.097656 263.441406 126.1875 Z M 261.261719 127.941406 " fill-opacity="1" fillRule="nonzero"/><path fill="#000000" d="M 259.644531 149.183594 C 259.644531 149.707031 259.59375 150.222656 259.492188 150.734375 C 259.390625 151.246094 259.242188 151.742188 259.042969 152.222656 C 258.84375 152.703125 258.597656 153.160156 258.308594 153.59375 C 258.019531 154.027344 257.691406 154.429688 257.324219 154.796875 C 256.957031 155.167969 256.558594 155.496094 256.125 155.785156 C 255.691406 156.074219 255.234375 156.320312 254.753906 156.519531 C 254.273438 156.71875 253.777344 156.871094 253.269531 156.972656 C 252.757812 157.074219 252.242188 157.125 251.722656 157.125 C 251.203125 157.125 250.6875 157.074219 250.175781 156.972656 C 249.667969 156.871094 249.171875 156.71875 248.691406 156.519531 C 248.210938 156.320312 247.753906 156.074219 247.320312 155.785156 C 246.890625 155.496094 246.488281 155.167969 246.121094 154.796875 C 245.753906 154.429688 245.425781 154.027344 245.136719 153.59375 C 244.847656 153.160156 244.601562 152.703125 244.402344 152.222656 C 244.203125 151.742188 244.054688 151.246094 243.953125 150.734375 C 243.851562 150.222656 243.800781 149.707031 243.800781 149.183594 C 243.800781 148.664062 243.851562 148.148438 243.953125 147.636719 C 244.054688 147.125 244.203125 146.628906 244.402344 146.144531 C 244.601562 145.664062 244.847656 145.207031 245.136719 144.773438 C 245.425781 144.339844 245.753906 143.9375 246.121094 143.570312 C 246.488281 143.203125 246.890625 142.871094 247.320312 142.582031 C 247.753906 142.292969 248.210938 142.046875 248.691406 141.847656 C 249.171875 141.648438 249.667969 141.5 250.175781 141.398438 C 250.6875 141.296875 251.203125 141.246094 251.722656 141.246094 C 252.242188 141.246094 252.757812 141.296875 253.269531 141.398438 C 253.777344 141.5 254.273438 141.648438 254.753906 141.847656 C 255.234375 142.046875 255.691406 142.292969 256.125 142.582031 C 256.558594 142.871094 256.957031 143.203125 257.324219 143.570312 C 257.691406 143.9375 258.019531 144.339844 258.308594 144.773438 C 258.597656 145.207031 258.84375 145.664062 259.042969 146.144531 C 259.242188 146.628906 259.390625 147.125 259.492188 147.636719 C 259.59375 148.148438 259.644531 148.664062 259.644531 149.183594 Z M 259.644531 149.183594 " fill-opacity="1" fillRule="nonzero"/><path fill="#000000" d="M 251.722656 157.917969 C 246.914062 157.917969 243.007812 154 243.007812 149.183594 C 243.007812 144.367188 246.914062 140.449219 251.722656 140.449219 C 256.527344 140.449219 260.4375 144.367188 260.4375 149.183594 C 260.4375 154 256.527344 157.917969 251.722656 157.917969 Z M 251.722656 142.039062 C 247.792969 142.039062 244.59375 145.242188 244.59375 149.183594 C 244.59375 153.125 247.792969 156.328125 251.722656 156.328125 C 255.652344 156.328125 258.851562 153.125 258.851562 149.183594 C 258.851562 145.242188 255.652344 142.039062 251.722656 142.039062 Z M 251.722656 142.039062 " fill-opacity="1" fillRule="nonzero"/><path fill="#ff2273" d="M 229.40625 145.082031 C 229.246094 145.082031 229.082031 145.03125 228.941406 144.929688 L 222.613281 140.324219 C 222.335938 140.125 222.222656 139.769531 222.324219 139.445312 L 224.511719 132.460938 C 224.640625 132.042969 225.085938 131.808594 225.503906 131.941406 C 225.921875 132.074219 226.152344 132.519531 226.023438 132.9375 L 224.007812 139.375 L 229.875 143.644531 C 230.230469 143.902344 230.304688 144.398438 230.050781 144.753906 C 229.894531 144.96875 229.652344 145.082031 229.40625 145.082031 Z M 229.40625 145.082031 " fill-opacity="1" fillRule="nonzero"/><path fill="#ff2273" d="M 229.40625 145.082031 C 229.34375 145.082031 229.273438 145.074219 229.207031 145.054688 C 228.785156 144.945312 228.53125 144.511719 228.644531 144.085938 L 230.472656 137.054688 L 224.835938 133.363281 C 224.46875 133.125 224.367188 132.628906 224.605469 132.265625 C 224.84375 131.894531 225.339844 131.796875 225.699219 132.035156 L 231.816406 136.035156 C 232.097656 136.222656 232.234375 136.570312 232.148438 136.902344 L 230.175781 144.488281 C 230.082031 144.84375 229.761719 145.082031 229.40625 145.082031 Z M 229.40625 145.082031 " fill-opacity="1" fillRule="nonzero"/><path fill="#000000" d="M 109.800781 178.835938 C 109.125 180.445312 107.222656 182.222656 105.570312 182.78125 L 100.230469 184.589844 C 98.578125 185.152344 96.769531 184.257812 96.203125 182.605469 L 93.492188 174.65625 C 92.929688 173.003906 93.820312 171.191406 95.46875 170.632812 L 100.804688 168.824219 C 102.457031 168.265625 105.046875 168.511719 106.5625 169.375 L 109.625 171.117188 C 111.136719 171.980469 111.824219 174.003906 111.152344 175.617188 Z M 109.800781 178.835938 " fill-opacity="1" fillRule="nonzero"/><path fill="#000000" d="M 123.3125 178.070312 C 124.917969 178.75 126.691406 180.65625 127.25 182.3125 L 129.058594 187.660156 C 129.617188 189.316406 128.722656 191.132812 127.074219 191.695312 L 119.144531 194.414062 C 117.496094 194.980469 115.6875 194.089844 115.132812 192.433594 L 113.328125 187.085938 C 112.769531 185.429688 113.015625 182.832031 113.875 181.316406 L 115.613281 178.25 C 116.476562 176.730469 118.492188 176.039062 120.101562 176.71875 Z M 123.3125 178.070312 " fill-opacity="1" fillRule="nonzero"/><path fill="#000000" d="M 183.824219 174.425781 C 184.085938 175.261719 183.628906 176.167969 182.800781 176.449219 L 173.246094 179.675781 C 172.417969 179.957031 171.53125 179.503906 171.269531 178.667969 L 170.007812 174.664062 C 169.746094 173.832031 170.207031 172.921875 171.03125 172.640625 L 180.582031 169.414062 C 181.410156 169.136719 182.300781 169.589844 182.5625 170.421875 Z M 183.824219 174.425781 " fill-opacity="1" fillRule="nonzero"/><path fill="#000000" d="M 193.652344 172.9375 C 192.933594 173.429688 192.128906 173.148438 191.867188 172.316406 L 190.605469 168.3125 C 190.34375 167.476562 190.84375 166.753906 191.710938 166.707031 L 202.191406 166.101562 C 203.0625 166.050781 203.183594 166.414062 202.464844 166.90625 Z M 193.652344 172.9375 " fill-opacity="1" fillRule="nonzero"/><path fill="#000000" d="M 122.554688 164.527344 C 123.226562 162.917969 125.132812 161.144531 126.78125 160.582031 L 132.121094 158.773438 C 133.773438 158.214844 135.585938 159.105469 136.148438 160.761719 L 138.859375 168.707031 C 139.425781 170.359375 138.535156 172.171875 136.882812 172.730469 L 131.550781 174.539062 C 129.898438 175.097656 127.304688 174.851562 125.789062 173.988281 L 122.730469 172.246094 C 121.214844 171.382812 120.527344 169.359375 121.203125 167.75 Z M 122.554688 164.527344 " fill-opacity="1" fillRule="nonzero"/><path fill="#000000" d="M 109.039062 165.292969 C 107.433594 164.617188 105.660156 162.707031 105.101562 161.054688 L 103.296875 155.703125 C 102.738281 154.046875 103.628906 152.230469 105.28125 151.667969 L 113.210938 148.949219 C 114.859375 148.382812 116.667969 149.277344 117.222656 150.929688 L 119.03125 156.277344 C 119.585938 157.933594 119.339844 160.527344 118.480469 162.046875 L 116.742188 165.113281 C 115.878906 166.632812 113.859375 167.320312 112.253906 166.644531 Z M 109.039062 165.292969 " fill-opacity="1" fillRule="nonzero"/><path fill="#00bfc3" d="M 173.757812 183.09375 C 173.421875 183.09375 173.113281 182.878906 173.003906 182.542969 C 172.871094 182.125 173.101562 181.679688 173.519531 181.546875 L 184.34375 178.066406 C 184.765625 177.933594 185.207031 178.160156 185.339844 178.578125 C 185.476562 178.996094 185.246094 179.445312 184.828125 179.578125 L 174 183.058594 C 173.921875 183.082031 173.839844 183.09375 173.757812 183.09375 Z M 173.757812 183.09375 " fill-opacity="1" fillRule="nonzero"/><path fill="#00bfc3" d="M 194.359375 176.746094 C 194.019531 176.746094 193.707031 176.527344 193.601562 176.183594 C 193.472656 175.765625 193.707031 175.320312 194.125 175.191406 L 204.691406 171.953125 C 205.113281 171.820312 205.550781 172.058594 205.679688 172.476562 C 205.808594 172.898438 205.570312 173.34375 205.15625 173.46875 L 194.589844 176.710938 C 194.511719 176.734375 194.433594 176.746094 194.359375 176.746094 Z M 194.359375 176.746094 " fill-opacity="1" fillRule="nonzero"/><path fill="#00bfc3" d="M 241.746094 121.859375 C 241.648438 121.859375 241.542969 121.839844 241.449219 121.800781 C 238.148438 120.457031 234.851562 118.949219 233.933594 116.636719 C 233.574219 115.75 233.609375 114.828125 234.027344 113.902344 C 234.476562 112.910156 235.191406 112.539062 235.714844 112.40625 C 237.464844 111.953125 239.492188 113.421875 239.71875 113.589844 C 240.070312 113.851562 240.140625 114.347656 239.882812 114.699219 C 239.621094 115.050781 239.128906 115.125 238.773438 114.863281 C 238.355469 114.554688 236.972656 113.710938 236.109375 113.941406 C 235.929688 113.988281 235.675781 114.101562 235.46875 114.554688 C 235.230469 115.085938 235.207031 115.5625 235.402344 116.050781 C 236.148438 117.925781 239.839844 119.433594 242.042969 120.332031 C 242.449219 120.496094 242.644531 120.960938 242.476562 121.363281 C 242.351562 121.671875 242.058594 121.859375 241.746094 121.859375 Z M 241.746094 121.859375 " fill-opacity="1" fillRule="nonzero"/><path fill="#00bfc3" d="M 241.746094 121.859375 C 241.621094 121.859375 241.496094 121.832031 241.378906 121.769531 C 240.992188 121.566406 240.839844 121.085938 241.042969 120.699219 C 242.148438 118.585938 243.996094 115.046875 243.355469 113.128906 C 243.191406 112.632812 242.867188 112.285156 242.339844 112.03125 C 241.890625 111.816406 241.621094 111.898438 241.457031 111.980469 C 240.710938 112.339844 240.164062 113.769531 240.019531 114.40625 C 239.921875 114.832031 239.5 115.105469 239.066406 115 C 238.640625 114.902344 238.375 114.472656 238.476562 114.046875 C 238.539062 113.773438 239.144531 111.332031 240.769531 110.546875 C 241.253906 110.3125 242.039062 110.128906 243.023438 110.597656 C 243.941406 111.035156 244.558594 111.71875 244.859375 112.625 C 245.648438 114.988281 244.101562 118.273438 242.449219 121.433594 C 242.304688 121.703125 242.03125 121.859375 241.746094 121.859375 Z M 241.746094 121.859375 " fill-opacity="1" fillRule="nonzero"/><path fill="#00bfc3" d="M 250.820312 154.144531 C 250.65625 154.144531 250.492188 154.09375 250.355469 153.992188 L 246.515625 151.207031 C 246.257812 151.023438 246.136719 150.699219 246.207031 150.390625 L 247.242188 145.753906 C 247.304688 145.492188 247.488281 145.28125 247.738281 145.183594 L 252.617188 143.335938 C 252.867188 143.242188 253.144531 143.277344 253.359375 143.433594 L 257.203125 146.21875 C 257.460938 146.40625 257.582031 146.726562 257.515625 147.039062 L 256.472656 151.675781 C 256.417969 151.933594 256.230469 152.148438 255.980469 152.242188 L 251.101562 154.09375 C 251.011719 154.128906 250.914062 154.144531 250.820312 154.144531 Z M 247.867188 150.226562 L 250.941406 152.457031 L 255.023438 150.910156 L 255.855469 147.199219 L 252.777344 144.972656 L 248.695312 146.519531 Z M 247.867188 150.226562 " fill-opacity="1" fillRule="nonzero"/><path fill="#ff2273" d="M 161.179688 149.488281 C 160.160156 149.488281 159.214844 148.828125 158.90625 147.796875 C 158.523438 146.539062 159.234375 145.207031 160.492188 144.828125 L 195.175781 134.324219 C 196.421875 133.945312 197.757812 134.652344 198.136719 135.914062 C 198.519531 137.175781 197.804688 138.503906 196.546875 138.886719 L 161.867188 149.386719 C 161.636719 149.457031 161.40625 149.488281 161.179688 149.488281 Z M 161.179688 149.488281 " fill-opacity="1" fillRule="nonzero"/><path fill="#00bfc3" d="M 168.148438 155.800781 C 167.128906 155.800781 166.1875 155.136719 165.875 154.109375 C 165.492188 152.851562 166.203125 151.519531 167.457031 151.136719 L 191.320312 143.878906 C 192.566406 143.496094 193.902344 144.203125 194.285156 145.464844 C 194.664062 146.722656 193.957031 148.054688 192.699219 148.433594 L 168.839844 155.695312 C 168.609375 155.765625 168.378906 155.800781 168.148438 155.800781 Z M 168.148438 155.800781 " fill-opacity="1" fillRule="nonzero"/><path fill="#ffffff" d="M 102.6875 281.316406 C 99.566406 281.277344 95.757812 278.855469 93.960938 277.449219 C 90.992188 275.136719 88.808594 271.367188 87.789062 267.785156 C 86.976562 264.941406 87.230469 256.542969 92.570312 258.355469 C 95.453125 259.332031 96 264.503906 97.429688 266.808594 C 99.417969 270.007812 102.394531 272.484375 105.355469 274.722656 C 106.972656 275.941406 107.265625 278.542969 105.898438 280.039062 C 105.042969 280.976562 103.917969 281.328125 102.6875 281.316406 Z M 102.6875 281.316406 " fill-opacity="1" fillRule="nonzero"/><path fill="#000000" d="M 102.75 281.539062 L 102.675781 281.539062 C 98.761719 281.539062 94.324219 278.453125 93.472656 277.789062 C 90.597656 275.550781 88.1875 271.925781 87.027344 267.859375 C 86.492188 265.992188 86.265625 261.3125 88.164062 258.785156 C 89.253906 257.335938 90.898438 256.917969 92.824219 257.566406 C 95.117188 258.34375 96.078125 261.121094 96.929688 263.550781 C 97.3125 264.648438 97.675781 265.691406 98.101562 266.382812 C 100.011719 269.457031 102.945312 271.902344 105.832031 274.082031 C 106.800781 274.8125 107.425781 275.972656 107.539062 277.257812 C 107.65625 278.503906 107.269531 279.429688 106.480469 280.289062 C 105.550781 281.308594 104.296875 281.539062 102.75 281.539062 Z M 91.171875 258.894531 C 90.464844 258.894531 89.894531 259.195312 89.433594 259.8125 C 88.082031 261.605469 88.007812 265.667969 88.550781 267.566406 C 89.625 271.320312 91.828125 274.792969 94.449219 276.835938 C 96.605469 278.523438 100.347656 280.546875 102.988281 280.546875 L 103.328125 280.546875 C 103.328125 280.546875 104.976562 280.203125 105.601562 279.519531 C 106.089844 278.984375 106.183594 278.210938 106.109375 277.40625 C 106.03125 276.570312 105.5625 275.820312 104.953125 275.359375 C 101.945312 273.085938 98.84375 270.527344 96.792969 267.230469 C 96.273438 266.394531 95.863281 265.277344 95.453125 264.089844 C 94.722656 262.003906 93.886719 259.636719 92.328125 259.109375 C 91.910156 258.96875 91.519531 258.894531 91.171875 258.894531 Z M 91.171875 258.894531 " fill-opacity="1" fillRule="nonzero"/><path fill="#ffffff" d="M 300.757812 194.621094 C 302.695312 197.085938 303.214844 201.578125 303.257812 203.871094 C 303.335938 207.636719 301.78125 211.710938 299.640625 214.753906 C 297.945312 217.175781 291.253906 222.246094 289.292969 216.933594 C 288.234375 214.070312 291.910156 210.394531 292.800781 207.832031 C 294.03125 204.273438 294.078125 200.390625 293.949219 196.675781 C 293.875 194.640625 295.707031 192.78125 297.742188 192.914062 C 299.003906 192.992188 299.988281 193.648438 300.757812 194.621094 Z M 300.757812 194.621094 " fill-opacity="1" fillRule="nonzero"/><path fill="#000000" d="M 292.308594 220.0625 C 291.074219 220.0625 289.417969 219.566406 288.546875 217.207031 C 287.707031 214.925781 289.242188 212.449219 290.597656 210.257812 C 291.207031 209.269531 291.785156 208.335938 292.050781 207.570312 C 293.234375 204.140625 293.28125 200.316406 293.152344 196.699219 C 293.113281 195.542969 293.578125 194.371094 294.429688 193.484375 C 295.332031 192.546875 296.574219 192.035156 297.792969 192.121094 C 299.183594 192.207031 300.394531 192.882812 301.378906 194.128906 C 303.8125 197.222656 304.03125 202.773438 304.050781 203.855469 C 304.125 207.503906 302.71875 211.75 300.289062 215.210938 C 299.140625 216.851562 295.503906 220.0625 292.308594 220.0625 Z M 297.671875 194.402344 C 296.816406 194.402344 296.109375 194.375 295.570312 194.9375 C 295.015625 195.511719 294.710938 196.085938 294.738281 196.820312 C 294.871094 200.59375 294.816406 204.503906 293.546875 208.179688 C 293.222656 209.113281 292.601562 210.074219 291.941406 211.136719 C 290.777344 213.019531 289.460938 215.128906 290.035156 216.675781 C 290.492188 217.917969 291.214844 218.484375 292.308594 218.484375 C 294.5625 218.484375 297.824219 215.964844 298.992188 214.304688 C 301.234375 211.109375 302.53125 207.214844 302.460938 203.886719 C 302.414062 201.144531 301.773438 197.550781 300.132812 195.460938 C 299.429688 194.574219 298.628906 194.398438 297.691406 194.398438 C 297.683594 194.402344 297.679688 194.402344 297.671875 194.402344 Z M 297.671875 194.402344 " fill-opacity="1" fillRule="nonzero"/></svg>