<svg xmlns="http://www.w3.org/2000/svg" xmlns:xlink="http://www.w3.org/1999/xlink" width="500" zoomAndPan="magnify" viewBox="0 0 375 374.999991" height="500" preserveAspectRatio="xMidYMid meet" version="1.0"><defs><clipPath id="75d980798b"><path d="M 85.699219 64 L 288.949219 64 L 288.949219 311.230469 L 85.699219 311.230469 Z M 85.699219 64 " clipRule="nonzero"/></clipPath></defs><rect x="-37.5" width="450" fill="#ffffff" y="-37.499999" height="449.999989" fill-opacity="1"/><rect x="-37.5" width="450" fill="#ffffff" y="-37.499999" height="449.999989" fill-opacity="1"/><rect x="-37.5" width="450" fill="#0097b2" y="-37.499999" height="449.999989" fill-opacity="1"/><g clip-path="url(#75d980798b)"><path fill="#ffffff" d="M 110.628906 311.210938 L 256.355469 311.210938 C 270.050781 311.210938 281.28125 299.960938 281.28125 286.246094 L 281.28125 267.039062 C 285.9375 263.75 288.949219 258.261719 288.949219 252.226562 L 288.949219 233.023438 C 288.949219 226.988281 285.9375 221.5 281.28125 218.207031 L 281.28125 171.570312 C 281.28125 169.101562 281.007812 166.632812 280.183594 164.164062 C 278.542969 155.109375 271.417969 148.25 262.378906 147.152344 C 260.460938 146.605469 258.546875 146.332031 256.355469 146.332031 L 252.792969 146.332031 L 272.515625 131.242188 C 274.433594 129.871094 274.707031 127.125 273.335938 125.480469 L 228.414062 65.949219 C 227.042969 64.027344 224.304688 63.753906 222.660156 65.125 L 115.285156 146.605469 L 110.628906 146.605469 C 108.710938 146.605469 106.519531 146.878906 104.601562 147.429688 C 95.5625 148.523438 88.164062 155.382812 86.796875 164.4375 C 85.972656 166.632812 85.699219 169.101562 85.699219 171.570312 L 85.699219 286.246094 C 85.699219 299.960938 96.929688 311.210938 110.628906 311.210938 Z M 271.144531 286.246094 C 271.144531 294.476562 264.570312 301.058594 256.355469 301.058594 L 110.628906 301.058594 C 102.410156 301.058594 95.835938 294.476562 95.835938 286.246094 L 95.835938 185.011719 C 99.121094 186.933594 102.683594 188.304688 106.792969 188.304688 L 259.914062 188.304688 C 264.023438 188.304688 267.859375 187.207031 270.871094 185.011719 L 270.871094 214.914062 C 270.871094 214.914062 270.597656 214.914062 270.597656 214.914062 L 222.386719 214.914062 C 207.046875 214.914062 194.722656 227.261719 194.722656 242.625 C 194.722656 257.988281 207.046875 270.332031 222.386719 270.332031 L 270.871094 270.332031 C 270.871094 270.332031 271.144531 270.332031 271.144531 270.332031 Z M 280.183594 233.023438 L 280.183594 252.226562 C 280.183594 257.164062 276.078125 261.28125 271.144531 261.28125 L 222.386719 261.28125 C 211.980469 261.28125 203.761719 252.773438 203.761719 242.625 C 203.761719 232.199219 212.253906 223.96875 222.386719 223.96875 L 270.871094 223.96875 C 276.078125 223.96875 280.183594 228.085938 280.183594 233.023438 Z M 224.304688 74.453125 L 264.296875 127.402344 L 238.824219 146.605469 C 238.824219 146.605469 238.550781 146.878906 238.550781 146.878906 L 216.636719 163.613281 L 195.816406 163.613281 C 199.652344 163.066406 203.214844 161.695312 206.5 159.226562 C 211.703125 155.382812 214.71875 150.445312 215.8125 144.136719 C 216.910156 137.824219 215.539062 132.066406 211.703125 126.851562 C 207.871094 121.640625 202.9375 118.621094 196.640625 117.523438 C 190.339844 116.425781 184.585938 117.800781 179.382812 121.640625 C 174.175781 125.480469 171.164062 130.417969 170.070312 136.730469 C 168.972656 143.039062 170.34375 148.800781 174.175781 154.011719 C 178.011719 159.226562 182.941406 162.242188 189.242188 163.339844 C 189.515625 163.339844 189.789062 163.339844 190.066406 163.339844 L 147.058594 163.339844 L 139.664062 153.738281 L 150.074219 145.78125 L 145.964844 140.296875 L 129.800781 152.367188 L 138.019531 163.339844 L 127.0625 163.339844 C 127.0625 163.066406 127.0625 163.066406 127.0625 162.792969 C 127.0625 161.695312 126.789062 160.871094 126.242188 160.046875 L 120.761719 152.640625 Z M 190.339844 156.480469 C 185.957031 155.660156 182.394531 153.738281 179.65625 149.898438 C 176.917969 146.332031 176.09375 142.214844 176.644531 137.824219 C 177.464844 133.4375 179.382812 129.871094 183.21875 127.125 C 186.230469 124.933594 189.242188 124.109375 192.53125 124.109375 C 193.351562 124.109375 194.449219 124.109375 195.269531 124.382812 C 199.652344 125.207031 203.214844 127.125 205.953125 130.96875 C 208.691406 134.535156 209.511719 138.648438 208.964844 143.039062 C 208.144531 147.429688 206.226562 150.996094 202.390625 153.738281 C 198.832031 156.207031 194.722656 157.304688 190.339844 156.480469 Z M 107.066406 156.207031 L 113.09375 156.207031 L 118.570312 163.613281 L 110.355469 163.613281 C 108.164062 163.613281 106.246094 165.535156 106.246094 167.730469 C 106.246094 169.925781 108.164062 171.84375 110.355469 171.84375 L 256.355469 171.84375 C 258.546875 171.84375 260.460938 169.925781 260.460938 167.730469 C 260.460938 165.535156 258.546875 163.613281 256.355469 163.613281 L 230.058594 163.613281 L 239.644531 156.207031 L 259.640625 156.207031 C 265.941406 156.207031 271.144531 161.417969 271.144531 167.730469 C 271.144531 174.039062 265.941406 179.25 259.640625 179.25 L 107.066406 179.25 C 100.765625 179.25 95.5625 174.039062 95.5625 167.730469 C 95.5625 161.417969 100.765625 156.207031 107.066406 156.207031 Z M 107.066406 156.207031 " fill-opacity="1" fillRule="nonzero"/></g><path fill="#ffffff" d="M 223.757812 229.179688 C 216.363281 229.179688 210.335938 235.21875 210.335938 242.625 C 210.335938 250.03125 216.363281 256.066406 223.757812 256.066406 C 231.152344 256.066406 237.179688 250.03125 237.179688 242.625 C 237.179688 235.21875 231.152344 229.179688 223.757812 229.179688 Z M 223.757812 249.207031 C 220.195312 249.207031 217.183594 246.191406 217.183594 242.625 C 217.183594 239.058594 220.195312 236.039062 223.757812 236.039062 C 227.316406 236.039062 230.332031 239.058594 230.332031 242.625 C 230.332031 246.191406 227.59375 249.207031 223.757812 249.207031 Z M 223.757812 249.207031 " fill-opacity="1" fillRule="nonzero"/><path fill="#ffffff" d="M 220.195312 92.558594 L 228.140625 102.984375 L 233.617188 98.59375 L 221.566406 82.957031 L 205.679688 95.027344 L 209.789062 100.515625 Z M 220.195312 92.558594 " fill-opacity="1" fillRule="nonzero"/><path fill="#ffffff" d="M 239.371094 139.746094 L 255.257812 127.402344 L 243.480469 111.765625 L 238 115.878906 L 245.671875 126.304688 L 235.261719 134.257812 Z M 239.371094 139.746094 " fill-opacity="1" fillRule="nonzero"/></svg>