<svg xmlns="http://www.w3.org/2000/svg" xmlns:xlink="http://www.w3.org/1999/xlink" width="500" zoomAndPan="magnify" viewBox="0 0 375 374.999991" height="500" preserveAspectRatio="xMidYMid meet" version="1.0"><defs><clipPath id="69f24699fb"><path d="M 63.597656 63.597656 L 311.097656 63.597656 L 311.097656 311.097656 L 63.597656 311.097656 Z M 63.597656 63.597656 " clipRule="nonzero"/></clipPath></defs><rect x="-37.5" width="450" fill="#ffffff" y="-37.499999" height="449.999989" fill-opacity="1"/><rect x="-37.5" width="450" fill="#5271ff" y="-37.499999" height="449.999989" fill-opacity="1"/><g clip-path="url(#69f24699fb)"><path fill="#006660" d="M 143.664062 73.871094 L 150.390625 73.871094 C 165.183594 73.871094 178.433594 69.882812 187.332031 63.597656 C 196.238281 69.882812 209.484375 73.871094 224.277344 73.871094 L 231.003906 73.871094 C 249.800781 73.871094 266.207031 84.640625 274.351562 100.316406 C 290.023438 108.460938 300.796875 124.867188 300.796875 143.664062 L 300.796875 150.390625 C 300.796875 165.183594 304.78125 178.433594 311.070312 187.332031 C 304.78125 196.238281 300.796875 209.484375 300.796875 224.277344 L 300.796875 231.003906 C 300.796875 249.800781 290.027344 266.207031 274.351562 274.351562 C 266.207031 290.023438 249.800781 300.796875 231.003906 300.796875 L 224.277344 300.796875 C 209.484375 300.796875 196.234375 304.78125 187.332031 311.070312 C 178.425781 304.78125 165.183594 300.796875 150.390625 300.796875 L 143.664062 300.796875 C 124.867188 300.796875 108.460938 290.027344 100.316406 274.351562 C 84.640625 266.207031 73.871094 249.804688 73.871094 231.007812 L 73.871094 224.28125 C 73.871094 209.492188 69.882812 196.238281 63.597656 187.339844 C 69.882812 178.433594 73.871094 165.1875 73.871094 150.398438 L 73.871094 143.667969 C 73.871094 124.875 84.640625 108.464844 100.316406 100.320312 C 108.460938 84.640625 124.863281 73.871094 143.664062 73.871094 Z M 143.664062 73.871094 " fill-opacity="1" fillRule="evenodd"/></g><path fill="#ffffcc" d="M 187.332031 91.398438 C 240.316406 91.398438 283.277344 134.347656 283.277344 187.339844 C 283.277344 240.332031 240.324219 283.28125 187.332031 283.28125 C 134.34375 283.28125 91.398438 240.316406 91.398438 187.332031 C 91.398438 134.347656 134.347656 91.398438 187.332031 91.398438 Z M 187.332031 91.398438 " fill-opacity="1" fillRule="evenodd"/><path fill="#ffcc00" d="M 264.894531 227.648438 Z M 295.640625 193.570312 C 294.65625 190.535156 291.402344 188.015625 285.765625 189.222656 C 286.222656 188.652344 286.804688 188.253906 287.523438 188.03125 C 289.609375 187.378906 291.066406 188.601562 293.183594 187.847656 C 295.511719 187.019531 296.328125 184.394531 295.554688 182.222656 C 294.613281 179.585938 291.335938 177.617188 285.585938 180.339844 C 290.691406 172.25 292.078125 166.03125 291.847656 161.40625 C 291.65625 157.527344 288.433594 154.300781 285.421875 158.023438 C 284.484375 159.191406 283.925781 160.992188 283.765625 163.429688 C 283.417969 172.808594 280.027344 183.136719 273.585938 194.421875 C 264.382812 208.839844 261.492188 219.917969 264.90625 227.65625 C 264.054688 222.382812 265.675781 216.816406 268.15625 213.890625 C 269.882812 211.855469 272.394531 210.871094 275.535156 208.730469 C 278.050781 207.007812 277.472656 204.0625 274.171875 204.886719 C 273.300781 205.101562 272.273438 205.566406 271.078125 206.265625 C 276.820312 200.109375 282.535156 199.320312 285.441406 199.644531 C 288.386719 199.972656 291.371094 202.773438 294.410156 199.648438 C 295.902344 198.101562 296.328125 195.707031 295.640625 193.570312 Z M 103.3125 206.257812 C 102.117188 205.558594 101.089844 205.097656 100.214844 204.878906 C 96.917969 204.054688 96.335938 207.003906 98.855469 208.722656 C 101.992188 210.863281 104.503906 211.855469 106.230469 213.882812 C 108.714844 216.804688 110.335938 222.371094 109.480469 227.648438 C 112.898438 219.917969 110.007812 208.839844 100.804688 194.414062 C 94.363281 183.132812 90.964844 172.800781 90.625 163.425781 C 90.460938 160.988281 89.90625 159.1875 88.964844 158.015625 C 85.957031 154.296875 82.726562 157.515625 82.539062 161.402344 C 82.3125 166.019531 83.691406 172.246094 88.804688 180.332031 C 83.054688 177.609375 79.773438 179.578125 78.832031 182.214844 C 78.058594 184.386719 78.871094 187.011719 81.203125 187.839844 C 83.320312 188.597656 84.78125 187.371094 86.867188 188.027344 C 87.585938 188.25 88.167969 188.644531 88.625 189.214844 C 82.984375 188.007812 79.738281 190.527344 78.746094 193.566406 C 78.054688 195.703125 78.480469 198.101562 79.992188 199.648438 C 83.03125 202.773438 86.011719 199.972656 88.957031 199.644531 C 91.847656 199.308594 97.566406 200.09375 103.3125 206.257812 Z M 281.667969 238.863281 C 280.207031 239.199219 278.660156 240.273438 277.023438 242.09375 C 270.964844 249.261719 261.925781 255.296875 249.890625 260.203125 C 233.75 265.878906 224.640625 272.8125 222.5625 281.003906 C 225.140625 276.324219 229.851562 272.945312 233.609375 272.179688 C 236.222656 271.648438 238.808594 272.414062 242.601562 272.667969 C 245.648438 272.871094 247.007812 270.191406 243.902344 268.804688 C 243.078125 268.441406 241.984375 268.167969 240.613281 267.984375 C 248.933594 266.675781 253.914062 269.585938 256 271.632812 C 258.117188 273.714844 258.738281 277.753906 263.050781 277.175781 C 265.191406 276.882812 267.003906 275.261719 267.777344 273.152344 C 268.878906 270.148438 267.871094 266.164062 262.691406 263.632812 C 263.402344 263.464844 264.109375 263.515625 264.808594 263.78125 C 266.851562 264.554688 267.246094 266.417969 269.375 267.128906 C 271.722656 267.914062 273.980469 266.347656 274.710938 264.164062 C 275.59375 261.507812 274.226562 257.9375 268.027344 256.535156 C 277.039062 253.320312 281.964844 249.273438 284.636719 245.5 C 286.882812 242.316406 286.332031 237.792969 281.667969 238.863281 Z M 124.488281 260.191406 C 112.453125 255.28125 103.410156 249.25 97.355469 242.082031 C 95.722656 240.261719 94.175781 239.183594 92.714844 238.851562 C 88.050781 237.78125 87.5 242.304688 89.746094 245.480469 C 92.417969 249.253906 97.339844 253.300781 106.355469 256.515625 C 100.148438 257.917969 98.78125 261.492188 99.671875 264.144531 C 100.402344 266.332031 102.660156 267.894531 105.007812 267.109375 C 107.140625 266.398438 107.53125 264.535156 109.582031 263.761719 C 110.28125 263.496094 110.984375 263.445312 111.699219 263.613281 C 106.515625 266.144531 105.507812 270.128906 106.609375 273.132812 C 107.382812 275.242188 109.195312 276.863281 111.339844 277.15625 C 115.660156 277.738281 116.269531 273.695312 118.386719 271.617188 C 120.472656 269.566406 125.457031 266.660156 133.773438 267.964844 C 132.398438 268.144531 131.304688 268.421875 130.488281 268.789062 C 127.378906 270.175781 128.742188 272.855469 131.785156 272.648438 C 135.582031 272.394531 138.167969 271.621094 140.78125 272.160156 C 144.535156 272.929688 149.246094 276.308594 151.828125 280.984375 C 149.734375 272.796875 140.625 265.867188 124.488281 260.191406 Z M 151.820312 280.992188 Z M 176.621094 91.992188 C 168.382812 92.90625 160.460938 94.863281 152.984375 97.730469 C 162.894531 100.515625 170.773438 98.601562 176.621094 91.992188 Z M 187.332031 101.675781 C 177.296875 110.074219 177.296875 122.800781 187.332031 139.84375 C 197.371094 122.800781 197.371094 110.074219 187.332031 101.675781 Z M 180.097656 98.683594 C 167.058594 97.519531 158.066406 106.515625 153.109375 125.671875 C 172.261719 120.714844 181.261719 111.714844 180.097656 98.683594 Z M 194.570312 98.683594 C 193.40625 111.722656 202.402344 120.714844 221.558594 125.671875 C 216.609375 106.515625 207.609375 97.519531 194.570312 98.683594 Z M 221.683594 97.734375 C 214.207031 94.871094 206.285156 92.914062 198.046875 91.996094 C 203.902344 98.601562 211.78125 100.515625 221.683594 97.734375 Z M 277.613281 122.292969 C 279.210938 122.292969 280.503906 121 280.503906 119.402344 C 280.503906 117.804688 279.210938 116.511719 277.613281 116.511719 C 276.015625 116.511719 274.722656 117.804688 274.722656 119.402344 C 274.722656 121 276.015625 122.292969 277.613281 122.292969 Z M 96.769531 122.28125 C 98.367188 122.28125 99.660156 120.988281 99.660156 119.390625 C 99.660156 117.792969 98.367188 116.5 96.769531 116.5 C 95.171875 116.5 93.878906 117.792969 93.878906 119.390625 C 93.878906 120.988281 95.171875 122.28125 96.769531 122.28125 Z M 130.742188 95.964844 C 132.332031 96.113281 133.742188 94.949219 133.890625 93.359375 C 134.039062 91.769531 132.875 90.359375 131.285156 90.207031 C 129.695312 90.058594 128.285156 91.222656 128.136719 92.816406 C 127.988281 94.40625 129.148438 95.816406 130.742188 95.964844 Z M 243.636719 95.976562 C 245.226562 95.828125 246.390625 94.417969 246.242188 92.828125 C 246.09375 91.234375 244.679688 90.074219 243.089844 90.222656 C 241.5 90.371094 240.335938 91.78125 240.484375 93.371094 C 240.640625 94.960938 242.042969 96.125 243.636719 95.976562 Z M 210.417969 81.835938 Z M 188.105469 73.164062 C 188.421875 71.5 187.042969 69.257812 187.042969 69.257812 C 187.042969 69.257812 185.664062 71.503906 185.976562 73.164062 C 186.214844 74.410156 187.878906 74.410156 188.105469 73.164062 Z M 188.71875 86.886719 C 188.71875 86.886719 193.691406 78.535156 199.570312 81.4375 C 199.570312 81.4375 203.667969 83.222656 204.382812 88.570312 C 204.382812 88.570312 205.679688 86.042969 204.082031 83.628906 C 205.574219 84.335938 208.035156 85.003906 210.414062 81.835938 C 208.015625 83.667969 205.121094 82.003906 203.429688 80.660156 C 201.660156 79.253906 199.5625 78.414062 197.390625 78.339844 C 189.625 78.066406 188.71875 86.886719 188.71875 86.886719 Z M 194.332031 76.449219 Z M 170.003906 83.628906 C 168.414062 86.042969 169.707031 88.570312 169.707031 88.570312 C 170.425781 83.222656 174.523438 81.4375 174.523438 81.4375 C 180.402344 78.542969 185.371094 86.886719 185.371094 86.886719 C 185.371094 86.886719 184.46875 78.066406 176.695312 78.332031 C 174.527344 78.40625 172.425781 79.253906 170.652344 80.652344 C 168.957031 81.996094 166.0625 83.660156 163.667969 81.828125 C 166.050781 85.003906 168.507812 84.335938 170.003906 83.628906 Z M 186.542969 82.082031 C 186.726562 82.40625 186.894531 82.726562 187.042969 83.023438 C 187.199219 82.726562 187.363281 82.40625 187.550781 82.070312 C 189.085938 79.328125 191.585938 75.917969 194.332031 76.449219 C 192.191406 73.109375 188.855469 74.847656 187.042969 80.289062 C 185.234375 74.847656 181.90625 73.109375 179.757812 76.449219 C 182.5 75.925781 185.007812 79.339844 186.542969 82.082031 Z M 155.121094 88.011719 C 156.710938 88.160156 158.121094 86.996094 158.269531 85.40625 C 158.417969 83.816406 157.253906 82.40625 155.664062 82.257812 C 154.074219 82.109375 152.664062 83.269531 152.515625 84.863281 C 152.359375 86.453125 153.527344 87.863281 155.121094 88.011719 Z M 218.710938 82.269531 C 217.121094 82.417969 215.957031 83.828125 216.105469 85.417969 C 216.253906 87.007812 217.667969 88.171875 219.257812 88.023438 C 220.847656 87.875 222.011719 86.464844 221.863281 84.875 C 221.714844 83.285156 220.300781 82.121094 218.710938 82.269531 Z M 218.710938 82.269531 " fill-opacity="1" fillRule="evenodd"/><path fill="#006660" d="M 153.660156 257.722656 Z M 172.425781 252.683594 C 169.296875 252.796875 166.277344 254.007812 163.722656 256.03125 C 161.285156 257.96875 157.113281 260.363281 153.660156 257.726562 C 157.085938 262.296875 160.628906 261.328125 162.78125 260.316406 C 160.484375 263.792969 162.347656 267.433594 162.347656 267.433594 C 163.382812 259.726562 169.285156 257.160156 169.285156 257.160156 C 177.757812 252.980469 184.917969 265.007812 184.917969 265.007812 C 184.917969 265.007812 183.621094 252.292969 172.425781 252.683594 Z M 185.796875 245.238281 C 186.140625 247.027344 188.535156 247.027344 188.867188 245.238281 C 189.320312 242.84375 187.332031 239.605469 187.332031 239.605469 C 187.332031 239.605469 185.347656 242.835938 185.796875 245.238281 Z M 210.945312 256.027344 C 208.394531 254.003906 205.367188 252.789062 202.242188 252.675781 C 191.046875 252.292969 189.746094 264.992188 189.746094 264.992188 C 189.746094 264.992188 196.90625 252.96875 205.375 257.144531 C 205.375 257.144531 211.277344 259.714844 212.3125 267.417969 C 212.3125 267.417969 214.175781 263.78125 211.878906 260.300781 C 214.03125 261.316406 217.574219 262.28125 221.003906 257.714844 C 217.5625 260.359375 213.390625 257.964844 210.945312 256.027344 Z M 197.832031 249.972656 C 194.742188 245.15625 189.9375 247.664062 187.328125 255.507812 C 184.722656 247.664062 179.925781 245.164062 176.835938 249.972656 C 180.792969 249.207031 184.398438 254.132812 186.609375 258.085938 C 186.875 258.550781 187.117188 259.007812 187.328125 259.441406 C 187.550781 259.015625 187.792969 258.550781 188.058594 258.066406 C 190.273438 254.113281 193.875 249.207031 197.832031 249.972656 Z M 214.984375 102.804688 C 217.011719 108.882812 222.804688 111.164062 232.371094 109.648438 C 226.40625 102.019531 220.613281 99.738281 214.984375 102.804688 Z M 206.109375 136.238281 C 207.332031 126.632812 204.875 120.90625 198.734375 119.070312 C 195.84375 124.789062 198.300781 130.511719 206.109375 136.238281 Z M 159.6875 102.804688 C 154.0625 99.738281 148.269531 102.019531 142.300781 109.648438 C 151.871094 111.164062 157.664062 108.882812 159.6875 102.804688 Z M 175.941406 119.074219 C 169.800781 120.914062 167.34375 126.632812 168.5625 136.242188 C 176.371094 130.511719 178.828125 124.789062 175.941406 119.074219 Z M 175.941406 119.074219 " fill-opacity="1" fillRule="nonzero"/><path fill="#cf1919" d="M 274.488281 180.855469 C 272.128906 186.820312 269.445312 193.300781 266.898438 198.261719 C 262.796875 206.910156 261.105469 214.492188 261.8125 221.007812 C 262.445312 220.957031 263.105469 221.113281 263.738281 221.664062 C 266.949219 224.472656 265.816406 231.429688 264.25 234.953125 C 262.140625 239.6875 258.082031 244.070312 252.078125 248.097656 C 257.753906 242.460938 259.472656 236.226562 259.535156 231.636719 C 259.578125 228.179688 258.382812 225.773438 258.753906 223.816406 C 259.007812 222.480469 259.925781 221.527344 261.039062 221.164062 C 261.09375 221.144531 261.15625 221.132812 261.210938 221.113281 C 257.113281 204.277344 270.476562 186.925781 271.175781 171.769531 C 271.449219 165.945312 269.847656 160.441406 264.664062 155.421875 C 262.625 153.5 261.878906 151.820312 261.738281 150.1875 C 261.527344 147.878906 262.789062 145.84375 264.808594 145.351562 C 267.054688 144.808594 270.199219 145.800781 273.136719 149.222656 C 281.226562 158.636719 278.871094 169.789062 274.488281 180.855469 Z M 115.628906 223.804688 C 115.375 222.46875 114.457031 221.515625 113.34375 221.152344 C 113.289062 221.132812 113.226562 221.121094 113.171875 221.101562 C 117.265625 204.265625 103.90625 186.914062 103.207031 171.753906 C 102.933594 165.933594 104.535156 160.429688 109.714844 155.410156 C 111.757812 153.484375 112.5 151.808594 112.644531 150.175781 C 112.855469 147.867188 111.59375 145.828125 109.574219 145.339844 C 107.328125 144.796875 104.183594 145.785156 101.242188 149.210938 C 93.148438 158.628906 95.511719 169.773438 99.886719 180.847656 C 102.246094 186.8125 104.933594 193.292969 107.476562 198.257812 C 111.578125 206.902344 113.269531 214.484375 112.5625 221.003906 C 111.933594 220.953125 111.269531 221.105469 110.640625 221.65625 C 107.425781 224.46875 108.558594 231.425781 110.125 234.945312 C 112.234375 239.679688 116.296875 244.0625 122.300781 248.089844 C 116.625 242.453125 114.902344 236.222656 114.839844 231.628906 C 114.804688 228.167969 116 225.769531 115.628906 223.804688 Z M 196.445312 271.027344 C 202.3125 264.957031 195.714844 259.421875 190.757812 266.257812 C 191.34375 257.832031 182.742188 257.832031 183.328125 266.25 C 178.367188 259.421875 171.78125 264.957031 177.640625 271.023438 C 169.453125 268.980469 167.960938 277.453125 176.355469 278.335938 C 168.765625 282.039062 173.074219 289.484375 180.066406 284.769531 C 176.632812 292.472656 184.714844 295.417969 187.042969 287.3125 C 189.371094 295.425781 197.453125 292.480469 194.023438 284.773438 C 201.019531 289.496094 205.320312 282.042969 197.738281 278.34375 C 206.128906 277.457031 204.632812 268.984375 196.445312 271.027344 Z M 187.042969 96.683594 C 189.902344 96.683594 192.222656 94.394531 192.273438 91.546875 C 190.539062 91.453125 188.800781 91.402344 187.042969 91.402344 C 185.285156 91.402344 183.546875 91.453125 181.8125 91.546875 C 181.863281 94.394531 184.191406 96.683594 187.042969 96.683594 Z M 259.050781 125.535156 C 266.046875 130.257812 270.347656 122.804688 262.765625 119.105469 C 271.15625 118.226562 269.667969 109.753906 261.476562 111.789062 C 267.34375 105.71875 260.75 100.1875 255.789062 107.019531 C 256.378906 98.59375 247.777344 98.59375 248.363281 107.011719 C 243.398438 100.1875 236.816406 105.71875 242.675781 111.785156 C 234.488281 109.742188 232.996094 118.214844 241.390625 119.097656 C 233.800781 122.800781 238.109375 130.246094 245.101562 125.53125 C 241.667969 133.234375 249.75 136.179688 252.078125 128.074219 C 254.398438 136.179688 262.480469 133.242188 259.050781 125.535156 Z M 131.707031 111.777344 C 137.566406 105.707031 130.980469 100.179688 126.019531 107.007812 C 126.613281 98.589844 118.003906 98.589844 118.59375 107.011719 C 113.632812 100.179688 107.035156 105.710938 112.902344 111.785156 C 104.714844 109.742188 103.222656 118.214844 111.617188 119.097656 C 104.035156 122.800781 108.335938 130.246094 115.332031 125.53125 C 111.902344 133.234375 119.984375 136.179688 122.3125 128.066406 C 124.636719 136.179688 132.722656 133.234375 129.285156 125.523438 C 136.28125 130.238281 140.582031 122.789062 133 119.09375 C 141.386719 118.207031 139.894531 109.734375 131.707031 111.777344 Z M 131.707031 111.777344 " fill-opacity="1" fillRule="evenodd"/><path fill="#ff9933" d="M 267.359375 139.367188 C 265.914062 136.304688 265.996094 132.542969 270.15625 131.507812 C 268.167969 132.425781 267.433594 134.332031 267.585938 136.21875 C 267.902344 140.105469 276.808594 145.933594 279.855469 151.820312 C 286.890625 165.4375 279.402344 182.550781 272.15625 194.320312 C 267.105469 203.046875 263.589844 210.351562 262.722656 219.183594 C 262.097656 197.292969 283.300781 179.828125 279.996094 159.632812 C 279.402344 155.984375 277.25 152.171875 274.660156 148.835938 C 271.933594 145.328125 268.738281 142.308594 267.359375 139.367188 Z M 263.53125 165.988281 C 266.324219 169.640625 268.8125 175.597656 267.820312 183.539062 C 270.0625 176.664062 270.550781 170.710938 269.289062 165.683594 C 268.355469 161.945312 264.949219 155.777344 260.6875 155.539062 C 259.496094 155.480469 258.75 156.074219 258.253906 156.816406 C 257.597656 157.792969 257.472656 159.105469 258.09375 160.3125 C 259.007812 162.089844 261.433594 163.246094 263.53125 165.988281 Z M 106.800781 136.207031 C 106.484375 140.09375 97.578125 145.921875 94.535156 151.808594 C 87.5 165.425781 94.988281 182.539062 102.234375 194.308594 C 107.285156 203.035156 110.800781 210.339844 111.667969 219.171875 C 112.292969 197.28125 91.085938 179.8125 94.394531 159.617188 C 94.988281 155.972656 97.140625 152.160156 99.726562 148.824219 C 102.449219 145.316406 105.636719 142.300781 107.023438 139.355469 C 108.464844 136.292969 108.386719 132.53125 104.226562 131.496094 C 106.21875 132.410156 106.949219 134.316406 106.800781 136.207031 Z M 106.554688 183.535156 C 105.5625 175.59375 108.050781 169.625 110.84375 165.980469 C 112.941406 163.234375 115.367188 162.082031 116.277344 160.304688 C 116.894531 159.097656 116.773438 157.789062 116.117188 156.808594 C 115.621094 156.074219 114.871094 155.472656 113.683594 155.535156 C 109.425781 155.769531 106.023438 161.941406 105.082031 165.679688 C 103.824219 170.703125 104.3125 176.65625 106.554688 183.535156 Z M 278.960938 213.035156 C 278.238281 216.210938 278.882812 220.550781 278.863281 224.988281 C 278.84375 229.214844 278.183594 233.535156 276.40625 236.773438 C 266.546875 254.703125 239.085938 255.363281 226.070312 272.984375 C 232.203125 266.566406 239.46875 262.988281 248.828125 259.238281 C 261.792969 254.441406 278.246094 245.589844 281.109375 230.539062 C 282.347656 224.027344 278.929688 213.945312 281.085938 210.691406 C 282.125 209.117188 283.882812 208.066406 286.011719 208.574219 C 282.105469 206.828125 279.71875 209.738281 278.960938 213.035156 Z M 242.269531 259.109375 C 247.335938 256.773438 253.4375 253.328125 258.976562 250.089844 C 269.25 244.082031 277.992188 236.765625 277.433594 224.355469 C 277.230469 219.851562 275.367188 217.128906 273.261719 216.175781 C 271.375 215.3125 269.128906 216.136719 267.867188 218.085938 C 266.972656 219.460938 266.523438 221.242188 266.945312 224.015625 C 267.921875 231.164062 265.785156 236.480469 261.980469 240.898438 C 251.167969 253.453125 226.84375 258.753906 222.089844 278.226562 C 224.808594 270.828125 231.535156 264.460938 242.269531 259.109375 Z M 148.304688 272.976562 Z M 97.96875 236.765625 C 96.1875 233.527344 95.53125 229.203125 95.511719 224.980469 C 95.496094 220.542969 96.144531 216.199219 95.414062 213.03125 C 94.660156 209.730469 92.277344 206.824219 88.363281 208.566406 C 90.492188 208.0625 92.25 209.113281 93.292969 210.683594 C 95.445312 213.941406 92.027344 224.023438 93.265625 230.53125 C 96.132812 245.589844 112.582031 254.433594 125.546875 259.230469 C 134.90625 262.988281 142.171875 266.558594 148.304688 272.976562 C 135.289062 255.363281 107.828125 254.703125 97.96875 236.765625 Z M 112.398438 240.886719 C 108.589844 236.46875 106.457031 231.152344 107.433594 224.003906 C 107.855469 221.230469 107.402344 219.449219 106.511719 218.074219 C 105.25 216.125 103 215.300781 101.113281 216.164062 C 99.007812 217.121094 97.148438 219.839844 96.941406 224.34375 C 96.386719 236.753906 105.117188 244.070312 115.398438 250.078125 C 120.9375 253.316406 127.039062 256.761719 132.109375 259.09375 C 142.839844 264.449219 149.566406 270.816406 152.292969 278.207031 C 147.53125 258.742188 123.214844 253.4375 112.398438 240.886719 Z M 217.933594 276.207031 C 221.101562 272.929688 217.535156 269.945312 214.863281 273.632812 C 215.179688 269.085938 210.535156 269.085938 210.851562 273.632812 C 208.171875 269.953125 204.621094 272.933594 207.78125 276.207031 C 203.363281 275.105469 202.550781 279.679688 207.082031 280.15625 C 202.984375 282.15625 205.3125 286.179688 209.089844 283.628906 C 207.230469 287.792969 211.601562 289.378906 212.855469 285.003906 C 214.113281 289.386719 218.476562 287.792969 216.625 283.628906 C 220.402344 286.179688 222.730469 282.15625 218.632812 280.15625 C 223.160156 279.679688 222.359375 275.101562 217.933594 276.207031 Z M 166.601562 276.195312 C 169.761719 272.921875 166.210938 269.933594 163.53125 273.621094 C 163.851562 269.078125 159.203125 269.078125 159.519531 273.621094 C 156.839844 269.933594 153.28125 272.921875 156.449219 276.195312 C 152.03125 275.09375 151.21875 279.667969 155.757812 280.144531 C 151.660156 282.144531 153.988281 286.167969 157.761719 283.617188 C 155.910156 287.777344 160.273438 289.367188 161.53125 284.992188 C 162.789062 289.371094 167.152344 287.78125 165.300781 283.617188 C 169.074219 286.167969 171.402344 282.144531 167.304688 280.144531 C 171.824219 279.667969 171.019531 275.09375 166.601562 276.195312 Z M 248.699219 244.445312 C 249.136719 243.683594 248.46875 242.792969 247.554688 241.953125 C 244.464844 239.109375 242.996094 237.941406 240.375 234.359375 C 235.472656 227.675781 233.34375 221.199219 225.710938 216.164062 C 222.816406 214.25 219.632812 212.96875 216.164062 212.324219 C 227.359375 210.4375 235.335938 204.90625 239.730469 195.058594 C 247.046875 178.65625 240.007812 163.160156 244.234375 152.273438 C 245.066406 150.144531 248.195312 147.59375 247.941406 146.417969 C 247.777344 145.636719 246.941406 145.324219 245.851562 145.273438 C 242.824219 145.136719 237.179688 146.902344 234.375 148.195312 C 232.273438 149.160156 230.355469 150.339844 228.632812 151.726562 C 226.066406 153.796875 223.941406 156.3125 222.339844 159.242188 C 221.71875 155.992188 221.496094 153.066406 221.671875 150.460938 C 222.089844 143.929688 227.550781 138.292969 227.433594 136.726562 C 227.351562 135.644531 225.265625 135.597656 222.804688 135.964844 C 211.335938 137.652344 205.109375 143.929688 200.039062 152.792969 C 195.210938 143.402344 190.050781 136.34375 187.332031 135.066406 C 184.617188 136.34375 179.449219 143.402344 174.628906 152.792969 C 169.566406 143.9375 163.332031 137.660156 151.863281 135.964844 C 149.402344 135.597656 147.316406 135.644531 147.234375 136.726562 C 147.117188 138.285156 152.574219 143.929688 152.996094 150.460938 C 153.164062 153.066406 152.941406 155.992188 152.328125 159.242188 C 150.726562 156.320312 148.609375 153.800781 146.035156 151.726562 C 144.3125 150.347656 142.394531 149.164062 140.289062 148.195312 C 137.488281 146.90625 131.84375 145.136719 128.816406 145.273438 C 127.71875 145.324219 126.890625 145.632812 126.722656 146.417969 C 126.476562 147.59375 129.609375 150.144531 130.429688 152.273438 C 134.660156 163.160156 127.621094 178.652344 134.9375 195.058594 C 139.332031 204.90625 147.308594 210.4375 158.503906 212.324219 C 155.039062 212.96875 151.851562 214.25 148.957031 216.164062 C 141.324219 221.199219 139.1875 227.675781 134.292969 234.359375 C 131.667969 237.941406 130.203125 239.109375 127.113281 241.953125 C 126.203125 242.789062 125.535156 243.683594 125.976562 244.445312 C 129.0625 249.804688 166.898438 241.089844 175.234375 230.457031 C 177.777344 234.253906 182.253906 236.773438 187.339844 236.773438 C 192.433594 236.773438 196.902344 234.253906 199.445312 230.457031 C 207.777344 241.089844 245.617188 249.804688 248.699219 244.445312 Z M 283.394531 124.917969 C 280.199219 124.917969 277.613281 127.503906 277.613281 130.699219 C 277.613281 133.890625 280.199219 136.476562 283.394531 136.476562 C 286.585938 136.476562 289.175781 133.890625 289.175781 130.699219 C 289.175781 127.503906 286.585938 124.917969 283.394531 124.917969 Z M 96.761719 130.683594 C 96.761719 127.492188 94.175781 124.90625 90.984375 124.90625 C 87.789062 124.90625 85.203125 127.492188 85.203125 130.683594 C 85.203125 133.878906 87.789062 136.464844 90.984375 136.464844 C 94.175781 136.464844 96.761719 133.878906 96.761719 130.683594 Z M 142.253906 94.152344 C 145.433594 94.453125 148.25 92.121094 148.554688 88.941406 C 148.855469 85.765625 146.523438 82.941406 143.34375 82.640625 C 140.160156 82.335938 137.34375 84.667969 137.042969 87.851562 C 136.746094 91.03125 139.078125 93.847656 142.253906 94.152344 Z M 232.125 94.164062 C 235.304688 93.859375 237.632812 91.042969 237.335938 87.863281 C 237.039062 84.683594 234.214844 82.355469 231.035156 82.652344 C 227.851562 82.949219 225.527344 85.769531 225.824219 88.953125 C 226.121094 92.128906 228.941406 94.460938 232.125 94.164062 Z M 232.125 94.164062 " fill-opacity="1" fillRule="evenodd"/><path fill="#cf1919" d="M 161.730469 212.757812 C 148.832031 211.433594 139.738281 205.828125 134.9375 195.058594 C 127.621094 178.65625 134.660156 163.160156 130.429688 152.273438 C 129.601562 150.144531 126.46875 147.59375 126.722656 146.417969 C 151.503906 156.203125 124.90625 203.351562 161.730469 212.757812 Z M 196.636719 225.199219 C 196.882812 220.222656 194.828125 214.714844 189.554688 213.035156 C 191.097656 212.980469 192.542969 212.839844 193.898438 212.621094 C 194.871094 212.746094 195.824219 212.839844 196.757812 212.894531 C 199.773438 215.386719 201.679688 219.066406 201.679688 223.15625 C 201.679688 225.84375 200.855469 228.347656 199.445312 230.457031 C 196.902344 234.253906 192.425781 236.765625 187.339844 236.765625 C 183.167969 236.214844 179.460938 232.78125 178.359375 227.667969 C 178.1875 226.875 178.082031 226.039062 178.039062 225.191406 C 177.789062 220.214844 179.84375 214.707031 185.117188 213.03125 C 183.578125 212.976562 182.128906 212.832031 180.773438 212.617188 C 179.800781 212.738281 178.847656 212.832031 177.914062 212.886719 C 174.898438 215.382812 172.992188 219.058594 172.992188 223.148438 C 172.992188 225.835938 173.816406 228.34375 175.226562 230.453125 C 177.773438 234.246094 182.246094 236.757812 187.332031 236.757812 C 191.503906 236.207031 195.210938 232.773438 196.3125 227.660156 C 196.488281 226.882812 196.59375 226.046875 196.636719 225.199219 Z M 238.46875 239.699219 C 228.070312 231.226562 227.539062 215.734375 204.816406 213.054688 C 207.671875 213.125 210.382812 213.03125 212.9375 212.765625 C 214.046875 212.652344 215.117188 212.503906 216.167969 212.332031 C 219.632812 212.976562 222.816406 214.257812 225.710938 216.167969 C 233.34375 221.207031 235.476562 227.679688 240.375 234.363281 C 240.851562 235.015625 241.285156 235.582031 241.703125 236.097656 C 243.585938 238.425781 245.027344 239.632812 247.558594 241.957031 C 248.46875 242.792969 249.136719 243.691406 248.703125 244.453125 C 244.324219 243.519531 241.085938 241.828125 238.46875 239.699219 Z M 136.199219 239.699219 C 146.597656 231.226562 147.128906 215.734375 169.847656 213.054688 C 166.996094 213.125 164.285156 213.03125 161.730469 212.765625 C 160.621094 212.652344 159.550781 212.503906 158.5 212.332031 C 155.03125 212.976562 151.851562 214.257812 148.957031 216.167969 C 141.324219 221.207031 139.1875 227.679688 134.292969 234.363281 C 133.816406 235.015625 133.382812 235.582031 132.960938 236.097656 C 131.082031 238.425781 129.640625 239.632812 127.109375 241.957031 C 126.199219 242.792969 125.53125 243.691406 125.96875 244.453125 C 130.34375 243.519531 133.582031 241.828125 136.199219 239.699219 Z M 185.113281 213.035156 C 168.574219 211.507812 176.050781 146.820312 187.332031 135.066406 C 196.628906 139.429688 234.554688 211.390625 189.554688 213.035156 C 206.09375 211.507812 198.617188 146.820312 187.332031 135.066406 C 178.039062 139.4375 140.109375 211.390625 185.113281 213.035156 Z M 200.015625 212.992188 C 209.164062 212.886719 215.964844 209.59375 220.277344 203.59375 C 226.292969 195.230469 227.488281 181.613281 223.472656 164.054688 C 222.023438 158.832031 221.421875 154.296875 221.671875 150.460938 C 222.089844 143.929688 227.550781 138.292969 227.433594 136.726562 C 227.40625 136.359375 227.148438 136.105469 226.722656 135.957031 C 217.832031 140.71875 215.710938 150.695312 215.449219 161.957031 C 214.949219 183.460938 227.203125 208.722656 200.015625 212.992188 Z M 212.9375 212.757812 C 225.835938 211.433594 234.925781 205.828125 239.730469 195.058594 C 247.046875 178.65625 240.007812 163.160156 244.234375 152.273438 C 245.066406 150.144531 248.195312 147.59375 247.941406 146.417969 C 223.160156 156.203125 249.769531 203.351562 212.9375 212.757812 Z M 174.660156 212.992188 C 165.511719 212.886719 158.710938 209.59375 154.394531 203.59375 C 148.378906 195.230469 147.183594 181.613281 151.203125 164.054688 C 152.648438 158.832031 153.25 154.296875 153.003906 150.460938 C 152.582031 143.929688 147.125 138.292969 147.242188 136.726562 C 147.265625 136.359375 147.527344 136.105469 147.953125 135.957031 C 156.839844 140.71875 158.964844 150.695312 159.222656 161.957031 C 159.71875 183.460938 147.464844 208.722656 174.660156 212.992188 Z M 174.660156 212.992188 " fill-opacity="0.549" fillRule="evenodd"/></svg>