<svg xmlns="http://www.w3.org/2000/svg" xmlns:xlink="http://www.w3.org/1999/xlink" width="500" zoomAndPan="magnify" viewBox="0 0 375 374.999991" height="500" preserveAspectRatio="xMidYMid meet" version="1.0"><defs><clipPath id="228718fd7f"><path d="M 63.804688 63.804688 L 311 63.804688 L 311 311.304688 L 63.804688 311.304688 Z M 63.804688 63.804688 " clipRule="nonzero"/></clipPath></defs><rect x="-37.5" width="450" fill="#ffffff" y="-37.499999" height="449.999989" fill-opacity="1"/><rect x="-37.5" width="450" fill="#ff5757" y="-37.499999" height="449.999989" fill-opacity="1"/><g clip-path="url(#228718fd7f)"><path fill="#ffffff" d="M 142.765625 142.765625 C 144.117188 143.730469 145.660156 144.117188 147.203125 144.117188 C 148.171875 144.117188 149.136719 143.921875 149.90625 143.535156 L 157.4375 140.640625 C 163.421875 138.324219 166.316406 131.566406 164.195312 125.582031 L 156.664062 105.3125 C 154.925781 100.871094 150.679688 97.78125 145.855469 97.78125 C 144.503906 97.78125 142.957031 97.976562 141.605469 98.554688 L 133.496094 101.644531 C 131.375 102.414062 129.828125 104.152344 129.058594 106.277344 C 127.898438 105.699219 126.742188 105.3125 125.390625 105.3125 C 124.425781 105.3125 123.457031 105.503906 122.6875 105.890625 L 87.9375 119.40625 C 84.65625 120.371094 64.578125 128.671875 63.804688 158.402344 C 63.804688 161.878906 65.929688 164.964844 69.210938 165.933594 C 69.980469 166.125 70.753906 166.316406 71.527344 166.316406 C 74.035156 166.316406 76.546875 164.964844 78.089844 162.84375 C 80.601562 158.980469 88.128906 149.90625 96.816406 147.785156 L 103.1875 155.3125 C 104.730469 157.050781 106.855469 158.015625 108.980469 158.015625 C 109.945312 158.015625 110.910156 157.824219 111.683594 157.4375 L 112.261719 157.242188 L 121.527344 182.148438 L 104.347656 182.148438 C 102.03125 182.148438 99.710938 183.308594 98.167969 185.042969 C 96.625 186.976562 96.238281 189.292969 96.816406 191.609375 L 100.679688 207.054688 C 101.257812 208.984375 102.414062 210.722656 104.152344 211.6875 L 115.929688 304.355469 C 116.507812 308.214844 119.789062 311.109375 123.652344 311.109375 L 251.070312 311.109375 C 254.929688 311.109375 258.214844 308.214844 258.792969 304.355469 L 270.570312 211.6875 C 272.304688 210.722656 273.464844 208.984375 274.042969 207.054688 L 277.90625 191.609375 C 278.484375 189.292969 277.90625 186.78125 276.554688 185.042969 C 275.007812 183.113281 272.886719 182.148438 270.375 182.148438 L 266.707031 182.148438 L 270.183594 172.6875 C 270.953125 172.882812 271.921875 172.882812 272.691406 172.882812 C 278.292969 172.882812 283.3125 169.601562 285.242188 164.386719 L 288.714844 155.507812 C 289.488281 153.574219 289.488281 151.453125 288.523438 149.523438 C 287.558594 147.589844 286.207031 146.238281 284.277344 145.46875 C 284.277344 145.46875 284.082031 145.46875 284.082031 145.46875 C 284.082031 145.46875 283.890625 145.46875 283.890625 145.273438 C 283.890625 145.273438 283.890625 145.082031 283.890625 145.082031 C 283.890625 144.886719 284.277344 144.886719 284.277344 144.886719 C 284.277344 144.886719 284.277344 144.886719 284.46875 144.886719 C 284.46875 144.886719 284.664062 144.886719 284.664062 144.886719 C 285.628906 145.273438 286.398438 145.46875 287.363281 145.46875 C 290.453125 145.46875 293.351562 143.535156 294.507812 140.640625 L 309.375 102.996094 C 311.304688 98.167969 311.109375 92.957031 308.988281 88.324219 C 306.863281 83.6875 303.003906 80.019531 298.175781 78.089844 L 287.363281 74.035156 C 285.046875 73.265625 282.730469 72.683594 280.414062 72.683594 C 272.304688 72.683594 265.355469 77.511719 262.265625 84.847656 L 247.402344 122.492188 C 245.859375 126.355469 247.789062 130.796875 251.648438 132.53125 C 251.84375 132.53125 252.035156 132.726562 251.84375 132.917969 C 251.84375 133.113281 251.457031 133.113281 251.457031 133.113281 C 251.457031 133.113281 251.261719 133.113281 251.261719 133.113281 C 250.492188 132.726562 249.527344 132.726562 248.753906 132.726562 C 245.664062 132.726562 242.769531 134.65625 241.609375 137.550781 L 238.136719 146.433594 C 236.785156 149.714844 236.976562 153.382812 238.328125 156.664062 C 239.679688 159.753906 241.996094 162.070312 245.085938 163.421875 L 238.136719 182.148438 L 218.25 182.148438 L 218.25 124.230469 C 228.867188 118.054688 235.625 106.855469 235.625 94.695312 C 235.625 82.335938 229.0625 71.332031 217.863281 64.960938 C 216.707031 64.191406 215.355469 63.996094 214.003906 63.996094 C 212.652344 63.996094 211.300781 64.382812 210.140625 64.960938 C 207.824219 66.3125 206.28125 68.824219 206.28125 71.71875 L 206.28125 89.09375 L 198.367188 92.761719 L 190.644531 89.09375 L 190.644531 72.296875 C 190.644531 69.597656 189.097656 66.894531 186.589844 65.542969 C 185.429688 64.960938 184.078125 64.578125 182.921875 64.578125 C 181.570312 64.578125 180.023438 64.960938 178.867188 65.734375 C 168.441406 72.105469 162.261719 83.109375 162.261719 94.886719 C 162.261719 107.050781 169.019531 118.246094 179.640625 124.425781 L 179.640625 182.148438 L 153.382812 182.148438 L 140.0625 146.625 C 141.414062 145.46875 142.378906 144.117188 142.765625 142.765625 Z M 251.070312 303.390625 L 123.652344 303.390625 L 112.070312 212.84375 L 262.652344 212.84375 Z M 245.664062 149.136719 L 249.140625 140.253906 C 250.105469 140.640625 251.070312 140.640625 251.84375 140.640625 C 255.125 140.640625 258.214844 138.710938 259.566406 135.429688 C 261.109375 131.375 259.179688 126.742188 255.125 125.003906 L 269.988281 87.355469 C 271.726562 82.722656 276.167969 80.019531 280.800781 80.019531 C 282.152344 80.019531 283.695312 80.214844 285.046875 80.792969 L 295.859375 84.847656 C 301.84375 87.164062 304.933594 93.726562 302.617188 99.710938 L 287.75 137.359375 C 287.75 137.359375 287.558594 137.359375 287.558594 137.359375 C 286.59375 136.972656 285.628906 136.78125 284.664062 136.78125 C 281.378906 136.78125 278.292969 138.710938 276.941406 141.992188 C 275.394531 146.046875 277.324219 150.875 281.574219 152.417969 C 281.574219 152.417969 281.765625 152.417969 281.765625 152.417969 L 278.292969 161.296875 C 277.324219 163.613281 275.203125 164.964844 272.886719 164.964844 C 272.113281 164.964844 271.535156 164.773438 270.761719 164.582031 L 248.945312 156.277344 C 246.050781 155.3125 244.507812 152.03125 245.664062 149.136719 Z M 263.039062 170.179688 L 258.597656 182.148438 L 246.628906 182.148438 L 252.613281 166.316406 Z M 169.984375 94.695312 C 169.984375 85.234375 175.199219 76.933594 182.921875 72.105469 L 182.921875 93.921875 L 198.558594 101.257812 L 214.195312 93.921875 L 214.195312 71.71875 C 222.496094 76.546875 228.097656 85.039062 228.097656 94.695312 C 228.097656 105.699219 220.953125 115.351562 210.722656 119.40625 L 210.722656 181.957031 L 187.359375 181.957031 L 187.359375 119.597656 C 177.128906 115.351562 169.984375 105.890625 169.984375 94.695312 Z M 270.375 189.679688 L 266.515625 205.121094 L 108.207031 205.121094 L 104.347656 189.679688 Z M 135.429688 140.253906 L 130.410156 142.765625 L 145.082031 181.957031 L 129.828125 181.957031 L 116.894531 147.011719 L 108.980469 150.101562 L 99.90625 139.484375 C 83.6875 139.867188 71.527344 158.59375 71.527344 158.59375 C 72.105469 132.339844 90.445312 126.546875 90.445312 126.546875 L 125.390625 113.035156 L 132.339844 120.5625 L 137.167969 118.632812 L 136.199219 108.785156 L 144.308594 105.699219 C 144.695312 105.503906 145.273438 105.503906 145.660156 105.503906 C 147.203125 105.503906 148.75 106.46875 149.328125 108.015625 L 156.859375 128.285156 C 157.628906 130.410156 156.664062 132.53125 154.542969 133.304688 L 147.011719 136.199219 L 141.027344 129.25 L 135.234375 131.566406 Z M 135.429688 140.253906 " fill-opacity="1" fillRule="nonzero"/></g></svg>